<svg id="Layer_1" data-name="Layer 1" xmlns="http://www.w3.org/2000/svg" viewBox="0 0 451.93 441.44"><defs><style>.cls-1,.cls-12{fill:#9bd2a5;}.cls-11,.cls-2,.cls-6,.cls-9{fill:#fff;}.cls-2{opacity:0.7;}.cls-13,.cls-3{fill:none;}.cls-11,.cls-12,.cls-13,.cls-3,.cls-5,.cls-6,.cls-7{stroke:#263238;}.cls-3,.cls-6,.cls-7{stroke-miterlimit:10;}.cls-4,.cls-5,.cls-7{fill:#263238;}.cls-11,.cls-12,.cls-13,.cls-5,.cls-8{stroke-linecap:round;stroke-linejoin:round;}.cls-8{fill:#b8b6b6;stroke:#fff;}.cls-10{opacity:0.19;}</style></defs><title>policy-image</title><path class="cls-1" d="M40.05,246.65c4.83,40.94,23.52,88.54,60.86,110.41,56.4,33,51.68,83.87,161.78,106a227.27,227.27,0,0,0,48.82,4.61,188.72,188.72,0,0,0,24-2c70-10.22,117.06-58.86,134.34-117.57,22.74-77.22-22.66-127.77-52.75-158.23S364.93,64.51,256.87,41.94a219.7,219.7,0,0,0-50.18-4.77c-38.44.95-80.38,13.57-109.4,39.93q-3.27,3-6.36,6.14C50.59,124.64,33.45,190.84,40.05,246.65Z" transform="translate(-24.04 -26.24)"/><path class="cls-2" d="M40.05,246.65c4.83,40.94,23.52,88.54,60.86,110.41,56.4,33,51.68,83.87,161.78,106a227.27,227.27,0,0,0,48.82,4.61,188.72,188.72,0,0,0,24-2c70-10.22,117.06-58.86,134.34-117.57,22.74-77.22-22.66-127.77-52.75-158.23S364.93,64.51,256.87,41.94a219.7,219.7,0,0,0-50.18-4.77c-38.44.95-80.38,13.57-109.4,39.93q-3.27,3-6.36,6.14C50.59,124.64,33.45,190.84,40.05,246.65Z" transform="translate(-24.04 -26.24)"/><line class="cls-3" x1="31.11" y1="224.17" x2="31.11" y2="238.24"/><line class="cls-3" x1="38.15" y1="231.2" x2="24.07" y2="231.2"/><line class="cls-3" x1="351.21" y1="349.81" x2="351.21" y2="358.49"/><line class="cls-3" x1="355.55" y1="354.15" x2="346.88" y2="354.15"/><line class="cls-3" x1="397.07" y1="56.09" x2="397.07" y2="64.77"/><line class="cls-3" x1="401.41" y1="60.43" x2="392.73" y2="60.43"/><line class="cls-3" x1="280.4" y1="410.38" x2="280.4" y2="419.05"/><line class="cls-3" x1="284.74" y1="414.71" x2="276.07" y2="414.71"/><line class="cls-3" x1="391.56" y1="391.03" x2="391.56" y2="412.09"/><line class="cls-3" x1="402.09" y1="401.56" x2="381.03" y2="401.56"/><line class="cls-3" x1="69.65" y1="88" x2="69.65" y2="109.06"/><line class="cls-3" x1="80.19" y1="98.53" x2="59.12" y2="98.53"/><path class="cls-3" d="M59.88,183.88a3.8,3.8,0,1,1-3.8-3.8A3.8,3.8,0,0,1,59.88,183.88Z" transform="translate(-24.04 -26.24)"/><path class="cls-3" d="M435.14,404.7a2.64,2.64,0,1,1-2.64-2.63A2.64,2.64,0,0,1,435.14,404.7Z" transform="translate(-24.04 -26.24)"/><path class="cls-3" d="M339.35,422.78a2.63,2.63,0,1,1-2.63-2.63A2.63,2.63,0,0,1,339.35,422.78Z" transform="translate(-24.04 -26.24)"/><circle class="cls-3" cx="62.37" cy="199.33" r="8.42" transform="translate(-169.13 148.97) rotate(-65.99)"/><circle class="cls-3" cx="423.28" cy="238.93" r="8.42"/><circle class="cls-3" cx="178.27" cy="93.2" r="8.42" transform="translate(22.71 219.17) rotate(-76.77)"/><path class="cls-3" d="M169.64,139.39c-52.08,0-94.45,41.48-94.45,92.46v51.87h26.92V231.85c0-36.44,30.29-66.1,67.53-66.1s67.52,29.66,67.52,66.1v51.87h26.91V231.85C264.07,180.87,221.71,139.39,169.64,139.39Z" transform="translate(-24.04 -26.24)"/><path class="cls-3" d="M271.4,424.86V283.72H139.48m-8.94,0H65.2V454.29H271.4V435.08M178,373.9l3.77,38.74H152.86l3.77-38.74a21.91,21.91,0,0,1-11.79-19.34,22.46,22.46,0,0,1,44.9,0A21.93,21.93,0,0,1,178,373.9Z" transform="translate(-24.04 -26.24)"/><path class="cls-3" d="M178,373.9l3.77,38.74H152.86l3.77-38.74a21.91,21.91,0,0,1-11.79-19.34,22.46,22.46,0,0,1,44.9,0A21.93,21.93,0,0,1,178,373.9Z" transform="translate(-24.04 -26.24)"/><path class="cls-3" d="M178,373.9l3.77,38.74H152.86l3.77-38.74a21.91,21.91,0,0,1-11.79-19.34,22.46,22.46,0,0,1,44.9,0A21.93,21.93,0,0,1,178,373.9Z" transform="translate(-24.04 -26.24)"/><path class="cls-4" d="M395.18,48.56c-4.12-.78-9.52,4.53-11.31,7.82-.15.28-2.06,5-2,5s7.35.55,10.42-.6c2.62-1,5.68-3,6.52-5.81A5,5,0,0,0,395.18,48.56Z" transform="translate(-24.04 -26.24)"/><path class="cls-4" d="M328.2,117.85c.26,2.37.58,4.72,1,7,.2,1,.34,2,.59,2.94s.46,1.89.69,2.82c.53,1.9,1,3.67,1.56,5.43.27.9.54,1.73.82,2.59-.67-1.36-1.77-3.51-1.89-3.69-2.06-3.13-7.89-8-11.93-6.83a5,5,0,0,0-3.09,6.71c1.08,2.75,4.3,4.47,7,5.23,3,.83,9.48-.14,10.28-.26.46,1.43.92,2.84,1.38,4.19h2.6c-.52-1.41-1-2.87-1.57-4.38.73-.31,6.36-2.74,8.63-5a54.54,54.54,0,0,0,5.59,3c-.6,2.13-1.17,4.21-1.66,6.17,0,.06,0,.11,0,.17h2.55c.39-1.66.81-3.39,1.26-5.17.81.16,7.28,1.32,10.27.57,2.71-.67,6-2.29,7.14-5a5,5,0,0,0-2.89-6.79c-4-1.25-10,3.4-12.13,6.46-.13.2-1.5,2.7-2.18,4,.3-1.16.6-2.32.93-3.52.47-1.74,1-3.56,1.54-5.32l.93-2.75c.29-.94.69-1.8,1-2.72.53-1.33,1.15-2.67,1.76-4,1.74.59,6.88,2.21,9.57,2s6.27-1.37,7.83-3.88a5,5,0,0,0-1.83-7.16c-3.77-1.84-10.37,1.86-13,4.56-.08.08-.57.71-1.14,1.46.64-1.29,1.27-2.59,2-3.88,2-3.66,4.07-7.32,6.16-11,.44-.76.87-1.54,1.3-2.31,1.46.5,7,2.31,9.83,2s6.27-1.36,7.83-3.87a5,5,0,0,0-1.83-7.16c-3.77-1.84-10.37,1.85-13,4.55-.09.1-.67.85-1.32,1.7,1.11-2,2.2-4,3.21-6.09a87.08,87.08,0,0,0,4.55-10.8c.52.18,7,2.43,10.12,2.13,2.78-.25,6.26-1.36,7.82-3.87a5,5,0,0,0-1.83-7.16c-3.77-1.84-10.37,1.85-13,4.56-.19.19-2.27,2.92-3,3.92a.69.69,0,0,0,.05-.13A64.68,64.68,0,0,0,381.25,68,91.53,91.53,0,0,0,382,57.77c.09-3.18,0-6.1-.14-8.68-.08-1.4-.17-2.67-.28-3.86l.07.05c.07,0,1.73-4.77,1.8-5.09.81-3.65.22-11.19-3.4-13.31a5,5,0,0,0-7,2.45c-1.23,2.69-.22,6.19,1.11,8.65s6,6.2,7.19,7.09c.09,1.24.16,2.57.21,4,.06,2.58.11,5.49-.05,8.66,0,.84-.12,1.75-.18,2.63-.21-1.51-.52-3.57-.57-3.76-1-3.62-5-10-9.15-10.25a5,5,0,0,0-5.06,5.38c.15,3,2.66,5.6,5,7.17s8.4,2.76,9.71,3c-.17,1.94-.38,3.94-.72,6a63.93,63.93,0,0,1-2.7,11c-.07.21-.17.41-.25.62,0-.76-.13-4.94-.17-5.23-.57-3.71-3.83-10.53-8-11.2a5,5,0,0,0-5.62,4.8c-.18,3,2,5.86,4.15,7.67,2.45,2.09,9.29,4,9.55,4.1a85.85,85.85,0,0,1-4.64,10.35c-1.3,2.48-2.71,4.94-4.15,7.39,0-1-.14-4.87-.18-5.15-.57-3.71-3.83-10.53-8-11.2a5,5,0,0,0-5.62,4.8c-.18,3,2,5.86,4.16,7.67,2.39,2,8.93,3.93,9.49,4.09-.66,1.11-1.31,2.23-2,3.34-2.17,3.63-4.37,7.26-6.42,10.91-.72,1.27-1.37,2.54-2,3.81,0-1.48-.13-4.18-.17-4.42-.56-3.7-3.83-10.52-8-11.19a5,5,0,0,0-5.62,4.79c-.17,3,2,5.87,4.16,7.68s7.61,3.53,9.15,4c-1.08,2.12-2.11,4.25-3,6.4-.37.93-.82,1.86-1.13,2.78s-.65,1.82-1,2.72c-.6,1.89-1.17,3.64-1.69,5.4-.27.89-.5,1.74-.75,2.61.19-1.51.46-3.9.46-4.13,0-3.74-2.19-11-6.18-12.27a5,5,0,0,0-6.28,3.89,6.73,6.73,0,0,0-.12,1.09A19.19,19.19,0,0,0,335,134.3c0,.24.23,3.08.38,4.53-.39-1.14-.78-2.26-1.17-3.45-.57-1.71-1.11-3.53-1.65-5.29l-.75-2.8c-.27-1-.41-1.88-.63-2.84-.29-1.4-.52-2.86-.75-4.32,1.77-.48,6.95-2,9.06-3.66s4.47-4.58,4.38-7.54a5,5,0,0,0-5.47-5c-4.16.54-7.62,7.26-8.3,11,0,.12-.08.91-.15,1.85-.18-1.43-.37-2.86-.5-4.32-.39-4.13-.65-8.35-.93-12.58-.06-.88-.13-1.76-.19-2.64,1.49-.39,7.11-2,9.32-3.73S342.11,88.92,342,86a5,5,0,0,0-5.47-5c-4.16.54-7.63,7.26-8.31,11,0,.13-.09,1.07-.16,2.14-.19-2.3-.4-4.59-.69-6.85a86.87,86.87,0,0,0-2.16-11.52c.53-.13,7.16-1.82,9.62-3.8,2.18-1.75,4.47-4.59,4.38-7.55a5,5,0,0,0-5.47-5c-4.16.55-7.63,7.27-8.3,11-.05.26-.28,3.69-.33,4.92a.61.61,0,0,0,0-.13A64.49,64.49,0,0,0,321,64.4a88.73,88.73,0,0,0-5-9c-1.68-2.71-3.38-5.08-4.9-7.17-.84-1.12-1.62-2.13-2.36-3.07h.09c.07,0-1.2-4.93-1.32-5.23-1.34-3.5-6-9.46-10.18-9.23a5,5,0,0,0-4.46,5.88c.46,2.93,3.24,5.29,5.7,6.61s8.45,1.84,9.92,2c.75,1,1.54,2,2.39,3.24,1.47,2.12,3.12,4.52,4.73,7.25.43.72.87,1.52,1.3,2.29-1-1.14-2.4-2.69-2.55-2.82-2.8-2.48-9.68-5.64-13.29-3.5a5,5,0,0,0-1.24,7.28c1.75,2.38,5.3,3.2,8.1,3.24s8.52-2.33,9.74-2.87c.94,1.72,1.86,3.5,2.72,5.41a63.32,63.32,0,0,1,3.83,10.7c.06.21.09.44.14.65-.4-.65-2.84-4.05-3-4.27-2.51-2.78-9-6.67-12.82-4.94a5,5,0,0,0-2,7.1c1.48,2.56,4.93,3.77,7.7,4.11,3.2.39,10-1.77,10.23-1.85a88.25,88.25,0,0,1,1.83,11.19c.29,2.78.47,5.61.62,8.46-.54-.83-2.81-4-3-4.2-2.51-2.78-9-6.67-12.82-4.94a5,5,0,0,0-2,7.09c1.48,2.57,4.93,3.77,7.7,4.11,3.13.39,9.62-1.65,10.17-1.82.07,1.29.14,2.58.2,3.87.19,4.23.36,8.47.66,12.65.1,1.45.26,2.87.4,4.3-.84-1.22-2.42-3.42-2.57-3.59-2.52-2.78-9-6.67-12.83-4.94a5,5,0,0,0-2,7.1c1.49,2.56,4.93,3.76,7.7,4.11S326.65,118.32,328.2,117.85Z" transform="translate(-24.04 -26.24)"/><path class="cls-4" d="M317.87,58.51s6.43-3.59,8.36-6.25c1.64-2.27,3.1-5.61,2.24-8.44a5,5,0,0,0-6.59-3.34c-3.87,1.63-5.44,9-5.12,12.75C316.79,53.56,317.81,58.55,317.87,58.51Z" transform="translate(-24.04 -26.24)"/><path class="cls-4" d="M139.71,354.85c-4.3-.82-9.92,4.71-11.78,8.14-.16.3-2.15,5.22-2.07,5.22s7.66.58,10.86-.63c2.73-1,5.92-3.09,6.79-6.05A5.16,5.16,0,0,0,139.71,354.85Z" transform="translate(-24.04 -26.24)"/><path class="cls-4" d="M69.91,427.05c.27,2.47.6,4.92,1,7.31.21,1,.36,2.09.62,3.06s.48,2,.71,2.94c.56,2,1.07,3.83,1.64,5.66.28.93.56,1.8.84,2.7-.69-1.42-1.84-3.66-2-3.85-2.14-3.26-8.21-8.29-12.42-7.12a5.17,5.17,0,0,0-3.23,7c1.13,2.88,4.48,4.66,7.29,5.45,3.09.87,9.88-.14,10.71-.27.48,1.5,1,3,1.44,4.37h2.71q-.81-2.21-1.64-4.57c.76-.32,6.64-2.85,9-5.15a56,56,0,0,0,5.82,3.12c-.63,2.22-1.22,4.39-1.73,6.43,0,.06,0,.11,0,.17h2.66c.4-1.72.84-3.53,1.31-5.38.85.16,7.59,1.37,10.7.59,2.83-.7,6.23-2.39,7.44-5.23a5.16,5.16,0,0,0-3-7.08c-4.17-1.3-10.39,3.55-12.63,6.74-.15.2-1.58,2.81-2.28,4.15.32-1.21.62-2.41,1-3.67.49-1.81,1.06-3.7,1.61-5.55.32-.94.64-1.89,1-2.86s.72-1.87,1.08-2.83c.55-1.38,1.19-2.79,1.83-4.19,1.82.61,7.17,2.3,10,2s6.52-1.42,8.15-4a5.18,5.18,0,0,0-1.91-7.46c-3.92-1.92-10.8,1.93-13.51,4.74-.09.1-.59.75-1.19,1.53.66-1.35,1.32-2.7,2-4,2-3.81,4.24-7.63,6.43-11.47l1.35-2.41c1.52.52,7.3,2.4,10.25,2.13s6.52-1.42,8.15-4.05a5.17,5.17,0,0,0-1.91-7.45c-3.92-1.92-10.8,1.93-13.51,4.74-.09.1-.7.89-1.37,1.77,1.15-2.11,2.28-4.22,3.34-6.34a93,93,0,0,0,4.74-11.26c.54.19,7.27,2.53,10.54,2.23,2.91-.27,6.53-1.42,8.15-4.05a5.16,5.16,0,0,0-1.9-7.45c-3.93-1.92-10.81,1.93-13.51,4.74-.19.2-2.37,3.05-3.11,4.09,0,0,0-.09,0-.13a67.6,67.6,0,0,0,2.6-11.71,92.46,92.46,0,0,0,.82-10.69c.09-3.31,0-6.35-.15-9-.08-1.46-.18-2.79-.29-4l.08.06c.06,0,1.79-5,1.87-5.3.84-3.81.23-11.67-3.55-13.88a5.17,5.17,0,0,0-7.26,2.55c-1.28,2.81-.23,6.46,1.16,9s6.28,6.46,7.49,7.39c.09,1.29.17,2.67.22,4.2.06,2.68.11,5.72,0,9,0,.88-.13,1.82-.19,2.74-.22-1.57-.54-3.71-.6-3.92-1-3.77-5.17-10.46-9.53-10.68a5.16,5.16,0,0,0-5.27,5.61c.15,3.08,2.77,5.83,5.18,7.47s8.75,2.88,10.11,3.11c-.17,2-.39,4.11-.74,6.27a66.86,66.86,0,0,1-2.82,11.5c-.08.21-.18.43-.26.64,0-.79-.13-5.15-.18-5.45-.59-3.86-4-11-8.31-11.67a5.17,5.17,0,0,0-5.85,5c-.18,3.08,2.11,6.1,4.33,8,2.55,2.18,9.68,4.19,9.95,4.27a93.1,93.1,0,0,1-4.83,10.78c-1.36,2.58-2.83,5.15-4.34,7.71,0-1-.14-5.09-.18-5.38-.59-3.85-4-11-8.31-11.66a5.17,5.17,0,0,0-5.85,5c-.19,3.08,2.11,6.11,4.33,8,2.49,2.13,9.31,4.1,9.89,4.26-.68,1.16-1.36,2.32-2.06,3.48-2.26,3.79-4.55,7.57-6.69,11.38-.75,1.31-1.43,2.64-2.12,4,0-1.54-.14-4.36-.18-4.6-.59-3.86-4-11-8.31-11.66a5.17,5.17,0,0,0-5.85,5c-.18,3.08,2.11,6.11,4.33,8s7.93,3.68,9.54,4.15c-1.13,2.22-2.21,4.44-3.16,6.67-.39,1-.85,1.95-1.18,2.9s-.68,1.9-1,2.84c-.63,2-1.22,3.79-1.76,5.63-.28.93-.52,1.81-.78,2.72.2-1.58.48-4.07.48-4.3,0-3.9-2.28-11.45-6.44-12.79a5.18,5.18,0,0,0-6.55,4.05,6.32,6.32,0,0,0-.13,1.14,20.16,20.16,0,0,0-3.2,9.61c0,.25.24,3.21.4,4.72-.41-1.18-.81-2.35-1.22-3.59-.59-1.78-1.16-3.68-1.72-5.52-.25-1-.51-1.93-.77-2.91s-.44-2-.67-3c-.3-1.46-.54-3-.77-4.51,1.84-.49,7.24-2,9.44-3.8s4.66-4.78,4.56-7.87a5.17,5.17,0,0,0-5.7-5.17c-4.33.57-8,7.58-8.65,11.42,0,.12-.09.95-.15,1.93-.19-1.49-.39-3-.53-4.5-.4-4.31-.67-8.71-1-13.11-.06-.92-.13-1.84-.2-2.76,1.56-.41,7.42-2,9.72-3.88s4.66-4.78,4.57-7.87a5.17,5.17,0,0,0-5.7-5.16c-4.34.57-8,7.57-8.65,11.41,0,.13-.1,1.12-.18,2.23-.19-2.4-.41-4.78-.71-7.13a91.74,91.74,0,0,0-2.25-12c.55-.14,7.46-1.9,10-4,2.27-1.83,4.66-4.78,4.57-7.87a5.17,5.17,0,0,0-5.7-5.17c-4.34.57-8,7.58-8.66,11.42,0,.27-.29,3.84-.33,5.12,0,0,0-.09,0-.14a67.45,67.45,0,0,0-4.28-11.2A93,93,0,0,0,57.19,362c-1.75-2.82-3.53-5.29-5.11-7.47-.87-1.17-1.69-2.22-2.46-3.2h.09c.08,0-1.25-5.14-1.37-5.45-1.4-3.64-6.24-9.86-10.6-9.62a5.18,5.18,0,0,0-4.66,6.13c.48,3.05,3.38,5.52,6,6.89s8.8,1.92,10.33,2c.78,1,1.6,2.14,2.49,3.38,1.53,2.2,3.25,4.71,4.93,7.55.45.76.9,1.59,1.36,2.39-1-1.19-2.5-2.8-2.66-2.94-2.92-2.59-10.09-5.87-13.85-3.65a5.18,5.18,0,0,0-1.3,7.59c1.83,2.48,5.53,3.34,8.45,3.37s8.88-2.43,10.15-3c1,1.78,1.94,3.64,2.83,5.63a67.5,67.5,0,0,1,4,11.15c0,.22.08.46.14.68-.42-.68-3-4.22-3.16-4.45-2.62-2.89-9.38-6.94-13.37-5.15a5.17,5.17,0,0,0-2.12,7.4c1.54,2.67,5.13,3.93,8,4.28,3.33.41,10.39-1.84,10.66-1.92a91.92,91.92,0,0,1,1.91,11.65c.3,2.91.48,5.86.64,8.83-.56-.87-2.92-4.17-3.12-4.39-2.62-2.89-9.38-6.94-13.36-5.14A5.17,5.17,0,0,0,49.87,402c1.55,2.67,5.13,3.93,8,4.29,3.25.4,10-1.73,10.59-1.91.07,1.35.15,2.69.21,4,.2,4.41.38,8.83.69,13.18.11,1.51.27,3,.42,4.48-.88-1.27-2.52-3.56-2.69-3.74-2.61-2.9-9.38-6.95-13.36-5.15a5.18,5.18,0,0,0-2.13,7.4c1.55,2.67,5.14,3.92,8,4.28S68.3,427.54,69.91,427.05Z" transform="translate(-24.04 -26.24)"/><path class="cls-4" d="M59.15,365.22s6.7-3.75,8.71-6.52c1.71-2.36,3.23-5.84,2.33-8.79a5.18,5.18,0,0,0-6.87-3.48c-4,1.69-5.66,9.4-5.33,13.29C58,360.05,59.08,365.25,59.15,365.22Z" transform="translate(-24.04 -26.24)"/><path class="cls-5" d="M193.34,80.73H422.85a0,0,0,0,1,0,0V352.24a9.38,9.38,0,0,1-9.38,9.38H202.72a9.38,9.38,0,0,1-9.38-9.38V80.73A0,0,0,0,1,193.34,80.73Z"/><path class="cls-6" d="M188.53,76.53H418a0,0,0,0,1,0,0V348a9.38,9.38,0,0,1-9.38,9.38H197.92a9.38,9.38,0,0,1-9.38-9.38V76.53A0,0,0,0,1,188.53,76.53Z"/><path class="cls-6" d="M433.15,102.77V383.66h.48a8.45,8.45,0,0,0,8.45-8.45V102.77Z" transform="translate(-24.04 -26.24)"/><rect class="cls-6" x="409.11" y="151.32" width="8.93" height="58.01"/><rect class="cls-7" x="188.53" y="76.53" width="229.51" height="19.87"/><path class="cls-6" d="M416.93,112.9a2.84,2.84,0,1,0-2.84,2.85A2.84,2.84,0,0,0,416.93,112.9Z" transform="translate(-24.04 -26.24)"/><circle class="cls-6" cx="398.99" cy="86.67" r="2.84"/><circle class="cls-6" cx="407.93" cy="86.67" r="2.84"/><path class="cls-8" d="M316.24,324.76c-21-12.61-37.54-27.87-49.16-45.34-8.91-13.4-11.66-23.34-12.12-25.2l-.58-2.34V162.57l72-30.81,72.05,30.81v89.31l-.59,2.34c-.46,1.86-3.2,11.79-12.11,25.2-11.62,17.47-28.16,32.73-49.16,45.34l-10.19,6.12Z" transform="translate(-24.04 -26.24)"/><path class="cls-9" d="M321.33,316.28c-47.38-28.45-56.41-63-56.77-64.44l-.29-1.17V169.1l62.15-26.59,62.16,26.59v81.57l-.29,1.17c-.37,1.46-9.4,36-56.78,64.44l-5.09,3.06Z" transform="translate(-24.04 -26.24)"/><path class="cls-1" d="M326.42,153.6l-52.26,21.57v74.29s7.86,31.68,52.26,58.35c44.41-26.67,52.27-58.35,52.27-58.35V175.17Z" transform="translate(-24.04 -26.24)"/><circle class="cls-9" cx="325.9" cy="216.94" r="37.01" transform="translate(-81.98 267.75) rotate(-45)"/><circle class="cls-4" cx="325.9" cy="203.8" r="14.23" transform="translate(25.15 444.34) rotate(-75.97)"/><path class="cls-4" d="M325.9,254a36.89,36.89,0,0,0,25.49-10.2,25.68,25.68,0,0,0-51,0A36.9,36.9,0,0,0,325.9,254Z" transform="translate(-24.04 -26.24)"/><path class="cls-10" d="M336.61,324.76c21-12.61,37.54-27.87,49.16-45.34,8.91-13.41,11.65-23.34,12.11-25.2l.59-2.34V162.57l-72.05-30.81V330.88Z" transform="translate(-24.04 -26.24)"/><path class="cls-4" d="M281.77,366.77V342.7h6a6.6,6.6,0,0,1,3.47.79,4.5,4.5,0,0,1,1.88,2.27,9.62,9.62,0,0,1,.6,3.6,7.63,7.63,0,0,1-.67,3.29,4.88,4.88,0,0,1-2,2.16,6.48,6.48,0,0,1-3.27.76h-2.64v11.2Zm3.36-13.61h1.54a6.38,6.38,0,0,0,2.29-.33,2.06,2.06,0,0,0,1.19-1.14,5.85,5.85,0,0,0,.36-2.3,10.52,10.52,0,0,0-.26-2.65,1.83,1.83,0,0,0-1.05-1.28,6.7,6.7,0,0,0-2.5-.35h-1.57Z" transform="translate(-24.04 -26.24)"/><path class="cls-4" d="M302.19,367a7.08,7.08,0,0,1-3.9-1,5.25,5.25,0,0,1-2.08-2.72,12.63,12.63,0,0,1-.62-4.15V350.1a11.63,11.63,0,0,1,.64-4.09,5,5,0,0,1,2.08-2.61,7.16,7.16,0,0,1,3.88-.91,7.09,7.09,0,0,1,3.86.92,5.2,5.2,0,0,1,2.06,2.62,11.48,11.48,0,0,1,.64,4.07v9.15a11.85,11.85,0,0,1-.64,4.1,5.36,5.36,0,0,1-2.06,2.72A6.75,6.75,0,0,1,302.19,367Zm0-2.65a3.16,3.16,0,0,0,2-.55,2.73,2.73,0,0,0,.92-1.54,10.13,10.13,0,0,0,.23-2.34V349.42a9.8,9.8,0,0,0-.23-2.31,2.57,2.57,0,0,0-.92-1.48,3.29,3.29,0,0,0-2-.52,3.34,3.34,0,0,0-2,.52,2.5,2.5,0,0,0-.94,1.48,10.36,10.36,0,0,0-.23,2.31V360a10.71,10.71,0,0,0,.23,2.34,2.65,2.65,0,0,0,.94,1.54A3.2,3.2,0,0,0,302.19,364.39Z" transform="translate(-24.04 -26.24)"/><path class="cls-4" d="M312.05,366.77V342.7h3.36v21.66h6.15v2.41Z" transform="translate(-24.04 -26.24)"/><path class="cls-4" d="M324,366.77V342.7h3.29v24.07Z" transform="translate(-24.04 -26.24)"/><path class="cls-4" d="M337.25,367a6.48,6.48,0,0,1-4-1.07,5.59,5.59,0,0,1-2-2.88,13.82,13.82,0,0,1-.55-4v-8.49a14.52,14.52,0,0,1,.55-4.25,5.15,5.15,0,0,1,2-2.81,8.26,8.26,0,0,1,7.55-.17,4.65,4.65,0,0,1,1.9,2.38,10.53,10.53,0,0,1,.58,3.72v1.9h-3.18v-1.7a18.41,18.41,0,0,0-.13-2.36,2.57,2.57,0,0,0-.73-1.59,2.89,2.89,0,0,0-2-.56,2.54,2.54,0,0,0-2.93,2.33,15.27,15.27,0,0,0-.19,2.6v9.54a10.94,10.94,0,0,0,.3,2.87,2.48,2.48,0,0,0,1,1.5,3.38,3.38,0,0,0,1.84.44,2.65,2.65,0,0,0,2-.61,2.85,2.85,0,0,0,.74-1.68,18.09,18.09,0,0,0,.15-2.49v-1.78h3.18v1.78a13,13,0,0,1-.53,3.88,4.91,4.91,0,0,1-1.85,2.61A6.2,6.2,0,0,1,337.25,367Z" transform="translate(-24.04 -26.24)"/><path class="cls-4" d="M350.2,366.77v-8.5L345,342.7h3.11l3.69,11.62,3.62-11.62h3.15l-5.17,15.57v8.5Z" transform="translate(-24.04 -26.24)"/><path class="cls-6" d="M188.74,352.4s-1.2,18.05,1.41,27.07,19,51.95,19,51.95.4,7.62-.2,8.42-3.41,5.21-7.22,7-11.83,6.41-10,7,17.85-1.21,19.65-.4,9.83-2.41,11.84-3.21,0-5.82,0-5.82a250.64,250.64,0,0,1-6-25.27c-1.81-11-4.61-26.27-6.22-33.89a62.89,62.89,0,0,0-4.61-13.64l2-18.85Z" transform="translate(-24.04 -26.24)"/><path class="cls-7" d="M204.38,449.46l-2.06-2.89-.54.29c-3.81,1.8-11.83,6.41-10,7s17.85-1.21,19.65-.4,9.83-2.41,11.84-3.21,0-5.82,0-5.82-.2-.67-.54-1.84a35.67,35.67,0,0,0-7.69,4.65C210.8,450.87,204.38,449.46,204.38,449.46Z" transform="translate(-24.04 -26.24)"/><path class="cls-6" d="M201.48,353.81s1.6,18.45,4,24.86,2.41,50.14,2.41,53.75-5.82,9.42-5.82,9.42-10,7.42-12.84,8.23-5,1.8-3.6,3,15.24,1.21,20.05,1.21,11,.2,11.63-.8a16.27,16.27,0,0,0,1-4s-1.2-11.23-.8-16.24,7.62-35.5,7-45.72a95.94,95.94,0,0,0-3.61-20.06c-.2-.8,1.4-14.64,1.4-14.64Z" transform="translate(-24.04 -26.24)"/><path class="cls-7" d="M218.32,449.46s0-.48-.13-1.28c-9,.69-20.72,1.28-20.72,1.28l-1.36-3.39c-2.69,1.82-5.56,3.62-6.87,4-2.8.8-5,1.8-3.6,3s15.24,1.21,20.05,1.21,11,.2,11.63-.8A16.27,16.27,0,0,0,218.32,449.46Z" transform="translate(-24.04 -26.24)"/><path class="cls-5" d="M181.65,304.34s-1.4,14.46-.8,20.89,2.28,38.29,2.28,38.29,11.38,7,21.62,7.6,25.71-4.82,25.71-4.82,3.41-37.86,1.41-47.9-3-14.86-3-14.86-27.11-1.41-34.14-3.22-8.69-2.83-8.69-2.83l-2.31-.26Z" transform="translate(-24.04 -26.24)"/><path class="cls-11" d="M185.87,300.59s10.45,5,25.91,3l-1-29.32,6.83-44.39-11.05-.4-12.45,4.42-7.44,56.24Z" transform="translate(-24.04 -26.24)"/><path class="cls-11" d="M195.82,225.13s-2.69,12.16-2.21,13.73,5.36,9.95,8.68,9.31S212.7,236,213.65,233.81s-1-6-1.11-6.78-2-9-2-9S202.92,224.5,195.82,225.13Z" transform="translate(-24.04 -26.24)"/><path class="cls-12" d="M196.75,232.49s-2.9,23.71-3.08,32.94S188.24,317,188.24,317s-.72,1.26-5.43-.19a14.47,14.47,0,0,1-7.06-4.7s8.15-30.41,8.33-31.86-1.45-15.56-1.45-15.56l-16.29,14.11s.36-7.6,1.81-9.23,12.31-21.9,13.22-23.89-.19-8,3.07-9.77S196.75,232.49,196.75,232.49Z" transform="translate(-24.04 -26.24)"/><polyline class="cls-13" points="156.91 271.81 163.8 274.1 163.54 275.89 157.42 274.36"/><path class="cls-11" d="M192.77,275.75s-2.9-28.06-2.54-34.39" transform="translate(-24.04 -26.24)"/><path class="cls-12" d="M213.4,231s-10,34-10,41.81,2,45.86,2,45.86,9,2.69,16.07,1.78S238,315.57,238,315.57L228.43,287s15.2-36.56,15.2-39.1,2-7.24,0-8.5-19.19-7.06-21.54-8.15S216.3,228.51,213.4,231Z" transform="translate(-24.04 -26.24)"/><polyline class="cls-13" points="204.36 275.12 187.75 277.37 188.8 279.71 198.24 278.69"/><path class="cls-12" d="M222.88,231.55c-.34-.13-.61-.25-.79-.33-2.35-1.09-5.79-2.71-8.69-.18,0,0-10,34-10,41.81,0,1.3.11,3.43.29,6.07.82-2.71,2.66-7,6-15.66C214.18,252,220.6,236.87,222.88,231.55Z" transform="translate(-24.04 -26.24)"/><path class="cls-5" d="M187.89,185.12s-9.91,6.61-10.51,11.41-.15,7.65-.15,12.3-2.55,19.21-.15,24.61,5.86,10.2,10.66,11.55,7.8.15,9-1.05a12.38,12.38,0,0,0,2.1-3.45s-2.55.3-2.55-2.7,2.85-12.15,2.85-12.15-6.45-3.3-7.65-6.45-4.8-19.81-4.5-21.16,5.7-4.35,5.85-8.11S190.59,183.92,187.89,185.12Z" transform="translate(-24.04 -26.24)"/><path class="cls-11" d="M187,191.73s-2.55,5.55-1.8,10.05,2.25,12.3,3,15.45,4.65,6.61,6.6,8.41,5.4,4.35,8,3.75,6.31-6.75,6.31-6.75,3-3.45,3.75-6.46-1.8-8.25-3.45-13.8a17.09,17.09,0,0,0-12.46-12.16C190.14,188.57,188,190.68,187,191.73Z" transform="translate(-24.04 -26.24)"/><path class="cls-13" d="M192.69,207.63s2.1,3.45,1.95,4.5-1.2,5.55-.6,5.85a7.2,7.2,0,0,0,2.7-.15" transform="translate(-24.04 -26.24)"/><path class="cls-13" d="M196.74,221s3.15.3,5.85-3.16" transform="translate(-24.04 -26.24)"/><path class="cls-13" d="M191.64,207.48s-2.55-1-3.75,1.05" transform="translate(-24.04 -26.24)"/><path class="cls-13" d="M195.84,206.88s.45-2.1,4.2-1" transform="translate(-24.04 -26.24)"/><path class="cls-4" d="M200,209.74c.27.78.11,1.55-.36,1.71s-1.07-.34-1.34-1.12-.11-1.55.36-1.72S199.72,209,200,209.74Z" transform="translate(-24.04 -26.24)"/><path class="cls-4" d="M191.94,211.23c.27.79.11,1.55-.36,1.71s-1.07-.34-1.34-1.12-.11-1.55.36-1.71S191.67,210.45,191.94,211.23Z" transform="translate(-24.04 -26.24)"/><path class="cls-5" d="M185.34,190.83s6,8.7,12,12.6,11.86,4.8,12,8.4-2.71,11.71-.45,17.56,6.45,8,12.3,6.75,8.55-6.6,8.55-6.6-3.3,2.25-4.35-.3-3.45-6.3-.45-12.46,4.8-9-.75-19.2-12.15-16.06-17.41-18.31S185.19,180.62,185.34,190.83Z" transform="translate(-24.04 -26.24)"/><polygon class="cls-11" points="159.1 248.41 158.4 241.4 155.74 244.07 159.1 248.41"/><path class="cls-11" d="M175.53,257.33l2.87,3.9-2.25,3.48s-.31.41,1.23,2.88a30.13,30.13,0,0,0,3.69,4.61S186,261.87,186.35,260s-8.21-12.78-8.21-12.78S175.22,252.91,175.53,257.33Z" transform="translate(-24.04 -26.24)"/><polygon class="cls-11" points="143.27 211.35 157.77 228.59 167.39 229.21 153.64 210.98 143.27 211.35"/><path class="cls-11" d="M174.74,247.39s-1.81,1.11-1.39,2.09,3.49,3.21,5.72,3.49,1.13-1.08,1.12-1.8S174.74,247.39,174.74,247.39Z" transform="translate(-24.04 -26.24)"/><path class="cls-11" d="M174.05,250.59s-1.4,1.54-1,2.65,5.72,2.66,6.7,2.79a1.11,1.11,0,0,0,.69-2.09C179.07,253,174.05,250.59,174.05,250.59Z" transform="translate(-24.04 -26.24)"/><path class="cls-11" d="M174.19,254.64s-.42,1.95.55,2.65,5.5.18,6.24-.12-1.21-1.14-1.21-1.14Z" transform="translate(-24.04 -26.24)"/><path class="cls-11" d="M203.71,263.64l-5.37-5.05s-1.73-5.84-2.52-7.57-1.42-2.21-3.32-4-3.15-.95-3.47.16l-.32,1.1s-9.15-.47-10.57-1.1-3-2-3.79-1.11.32,2.21,1.58,3a17.29,17.29,0,0,0,4.26,2c1.27.32,2.84.63,2.84.63l-6.62-.94a1.51,1.51,0,0,0,.47,1.58l2.05,2.05a11.58,11.58,0,0,0,2,2.68,11,11,0,0,0,2.81,1.76c1.33.64,2.56,1.08,2.56,1.08a22.65,22.65,0,0,1-3.63-.31c-1.58-.32-3-1.11-2.84,0s1.26,1.57,3,1.89,9.15,1.26,9.78,1.42,8.84,7.73,8.84,7.73Z" transform="translate(-24.04 -26.24)"/><path class="cls-11" d="M188.71,248.33a16.68,16.68,0,0,1,4.27,1.9" transform="translate(-24.04 -26.24)"/><line class="cls-13" x1="159" y1="225.57" x2="163.1" y2="226.52"/><path class="cls-13" d="M178.93,254.49s5.21,1.73,7.89,2.36" transform="translate(-24.04 -26.24)"/><path class="cls-12" d="M244.5,241.5a175.13,175.13,0,0,1-5.11,25.66c-3.61,12.46-5.48,23.67-6.23,24.54s-8.84-2.24-15.45-6.23-19.93-13.58-19.93-13.58l5.61-10.71L223.2,273s.62-1.37,1.49-1.62a7,7,0,0,0,1.49-.62l1.87-23.92" transform="translate(-24.04 -26.24)"/><path class="cls-12" d="M176.15,264.71l7,9.94s-2.1,6.45-4.21,9-9,3.65-11.21,1-1.69-6.73-.42-9S176.15,264.71,176.15,264.71Z" transform="translate(-24.04 -26.24)"/><line class="cls-3" y1="428.06" x2="433.49" y2="428.06"/></svg>