<svg id="Layer_1" data-name="Layer 1" xmlns="http://www.w3.org/2000/svg" viewBox="0 0 478.88 428.1"><defs><style>.cls-1{fill:#f1f0f0;}.cls-2{fill:#e0e0e0;}.cls-3{fill:#58c2b1;}.cls-12,.cls-4{opacity:0.15;}.cls-10,.cls-15,.cls-5{fill:#fff;}.cls-6{fill:#37474f;}.cls-7{fill:#455b64;}.cls-8{opacity:0.3;}.cls-9{opacity:0.05;}.cls-10{opacity:0.35;}.cls-11{opacity:0.2;}.cls-13{opacity:0.1;}.cls-14{fill:#fafbfb;}.cls-15,.cls-17{opacity:0.4;}.cls-16{opacity:0.25;}.cls-18{fill:#b16669;}.cls-19{fill:#263238;}.cls-20{fill:#9a4b4e;}</style></defs><title>webmail-image</title><ellipse id="Floor" class="cls-1" cx="239.44" cy="289.86" rx="239.44" ry="138.24"/><path id="Shadow" class="cls-2" d="M53.27,363a3.13,3.13,0,0,1-2.51-1,2.18,2.18,0,0,0-1.67-.59h-.28l-1.29.11-.37,0a3.2,3.2,0,0,1-2.5-1,1.38,1.38,0,0,1-.28-1.19.27.27,0,0,0-.07-.26,2.21,2.21,0,0,0-1.65-.57h-.29l-.37,0a3.2,3.2,0,0,1-2.5-1,1.37,1.37,0,0,1-.28-1.19.27.27,0,0,0-.07-.26,2.25,2.25,0,0,0-1.65-.57H37.2l-.37,0a3.21,3.21,0,0,1-2.5-1,1.37,1.37,0,0,1-.28-1.19.27.27,0,0,0-.07-.26,2.25,2.25,0,0,0-1.65-.57h-.28l-.38,0a3.24,3.24,0,0,1-2.5-1,1.38,1.38,0,0,1-.28-1.19.29.29,0,0,0-.07-.27,2.25,2.25,0,0,0-1.65-.57h-.28l-.38,0a3.24,3.24,0,0,1-2.5-1,1.38,1.38,0,0,1-.28-1.19l.19-.75c0-.22-.29-.57-1-.74-1.39-.35-1.83-1.16-1.79-1.81.05-.89.94-1.58,2.27-1.75l.54-.06a1.93,1.93,0,0,0,1.24-.55.35.35,0,0,0,.08-.23l-.14-1a1.42,1.42,0,0,1,.37-1.12,3.31,3.31,0,0,1,2.44-.91h.2l1.24.05A2.25,2.25,0,0,0,31,338c.13-.14.12-.23.11-.26l-.08-.63a1.37,1.37,0,0,1,.37-1.12,3.3,3.3,0,0,1,2.44-.91h.2l1.23.06a2.26,2.26,0,0,0,1.63-.54.37.37,0,0,0,.11-.27l-.08-.62a1.37,1.37,0,0,1,.36-1.12,3.27,3.27,0,0,1,2.44-.91H40l1.23.05a2.27,2.27,0,0,0,1.63-.54c.12-.14.11-.23.1-.26l-.08-.63a1.41,1.41,0,0,1,.37-1.12,3.31,3.31,0,0,1,2.44-.91h.2l1.24.05a2.25,2.25,0,0,0,1.62-.54.32.32,0,0,0,.11-.27l-.08-.62a1.4,1.4,0,0,1,.36-1.12,3.34,3.34,0,0,1,2.45-.91h.2l1.9.08c.91,0,1.6-.35,1.72-.68l.12-.32c.39-1,1.72-1.38,2.75-1.38a3.13,3.13,0,0,1,2.51,1,2.14,2.14,0,0,0,1.66.58h.28l1.29-.1.37,0a3.18,3.18,0,0,1,2.5,1,1.36,1.36,0,0,1,.28,1.19.29.29,0,0,0,.08.26,2.21,2.21,0,0,0,1.65.57h.28a2.3,2.3,0,0,1,.37,0,3.21,3.21,0,0,1,2.5,1,1.38,1.38,0,0,1,.28,1.19.31.31,0,0,0,.08.27A2.21,2.21,0,0,0,74,330l.28,0h.37a3.21,3.21,0,0,1,2.5,1,1.38,1.38,0,0,1,.28,1.19.31.31,0,0,0,.08.27,2.21,2.21,0,0,0,1.65.57l.28,0h.37a3.18,3.18,0,0,1,2.5,1,1.38,1.38,0,0,1,.28,1.19c0,.06,0,.14.08.26a2.16,2.16,0,0,0,1.64.57H85a3.18,3.18,0,0,1,2.5,1,1.38,1.38,0,0,1,.28,1.19l-.19.75c0,.22.3.57,1,.73,1.39.35,1.83,1.17,1.79,1.81,0,.9-.94,1.59-2.26,1.75l-.54.07a1.9,1.9,0,0,0-1.24.55c-.1.12-.09.2-.08.23l.13,1a1.41,1.41,0,0,1-.37,1.12,3.3,3.3,0,0,1-2.44.91h-.2L82.1,347a2.25,2.25,0,0,0-1.62.54.31.31,0,0,0-.11.26l.08.63a1.38,1.38,0,0,1-.36,1.12,3.32,3.32,0,0,1-2.45.91h-.2l-1.23-.05a2.27,2.27,0,0,0-1.63.54.37.37,0,0,0-.11.27l.09.62a1.41,1.41,0,0,1-.37,1.12,3.31,3.31,0,0,1-2.44.91h-.2l-1.24-.05a2.29,2.29,0,0,0-1.62.53c-.13.15-.12.24-.11.27l.08.62a1.4,1.4,0,0,1-.37,1.13,3.29,3.29,0,0,1-2.44.9h-.2l-1.23,0a2.27,2.27,0,0,0-1.63.54.35.35,0,0,0-.11.26l.09.63a1.41,1.41,0,0,1-.37,1.12,3.31,3.31,0,0,1-2.44.91h-.2l-1.91-.09a1.94,1.94,0,0,0-1.72.69l-.12.31C55.63,362.63,54.29,363,53.27,363Z" transform="translate(-9.68 -39.76)"/><path id="Shadow-2" data-name="Shadow" class="cls-2" d="M93.09,386.9a3.1,3.1,0,0,1-2.51-1,2.19,2.19,0,0,0-1.67-.58h-.27l-1.3.1-.37,0a3.21,3.21,0,0,1-2.5-1,1.36,1.36,0,0,1-.28-1.18.29.29,0,0,0-.07-.27,2.25,2.25,0,0,0-1.65-.57h-.28l-.38,0a3.24,3.24,0,0,1-2.5-1A1.34,1.34,0,0,1,79,380.3.34.34,0,0,0,79,380a2.23,2.23,0,0,0-1.65-.57l-.28,0h-.37a3.25,3.25,0,0,1-2.51-1,1.34,1.34,0,0,1-.27-1.19.34.34,0,0,0-.08-.27,2.23,2.23,0,0,0-1.65-.57l-.28,0h-.38a3.21,3.21,0,0,1-2.5-1,1.34,1.34,0,0,1-.27-1.19.34.34,0,0,0-.08-.27,2.23,2.23,0,0,0-1.65-.56h-.65a3.22,3.22,0,0,1-2.51-1,1.37,1.37,0,0,1-.27-1.19l.18-.75c0-.22-.29-.57-1-.73-1.38-.35-1.83-1.17-1.79-1.82.06-.89,1-1.58,2.27-1.74l.54-.07a1.9,1.9,0,0,0,1.24-.55.33.33,0,0,0,.08-.23l-.13-1a1.37,1.37,0,0,1,.36-1.12,3.31,3.31,0,0,1,2.44-.91H68l1.23.05a2.27,2.27,0,0,0,1.63-.54c.12-.14.11-.23.1-.26l-.08-.63a1.42,1.42,0,0,1,.37-1.12A3.31,3.31,0,0,1,73.7,359h.2l1.24.05a2.25,2.25,0,0,0,1.62-.54.32.32,0,0,0,.11-.27l-.08-.62a1.37,1.37,0,0,1,.37-1.12,3.3,3.3,0,0,1,2.44-.91h.2l1.23.06a2.32,2.32,0,0,0,1.63-.54.38.38,0,0,0,.11-.27l-.09-.62a1.44,1.44,0,0,1,.37-1.13,3.31,3.31,0,0,1,2.44-.9h.2l1.24,0a2.27,2.27,0,0,0,1.63-.54c.12-.14.11-.23.1-.26l-.08-.63a1.37,1.37,0,0,1,.37-1.12,3.3,3.3,0,0,1,2.44-.91h.2l1.9.09a1.92,1.92,0,0,0,1.72-.69l.12-.31c.39-1,1.72-1.39,2.75-1.39a3.16,3.16,0,0,1,2.51,1,2.16,2.16,0,0,0,1.66.59h.28l1.29-.11.37,0a3.22,3.22,0,0,1,2.51,1,1.37,1.37,0,0,1,.27,1.19.28.28,0,0,0,.08.26,2.19,2.19,0,0,0,1.65.57H109l.37,0a3.18,3.18,0,0,1,2.5,1,1.37,1.37,0,0,1,.28,1.19.28.28,0,0,0,.08.26,2.21,2.21,0,0,0,1.65.57h.28l.37,0a3.18,3.18,0,0,1,2.5,1,1.37,1.37,0,0,1,.28,1.19.29.29,0,0,0,.08.26,2.21,2.21,0,0,0,1.65.57h.28l.37,0a3.21,3.21,0,0,1,2.5,1,1.38,1.38,0,0,1,.28,1.19.3.3,0,0,0,.08.27,2.21,2.21,0,0,0,1.65.57l.28,0h.37a3.21,3.21,0,0,1,2.5,1,1.38,1.38,0,0,1,.28,1.19l-.18.75c-.06.22.29.57.95.74,1.38.35,1.83,1.16,1.79,1.81-.06.89-.95,1.58-2.27,1.75l-.54.06a1.9,1.9,0,0,0-1.24.55c-.1.12-.09.21-.08.23l.13,1a1.39,1.39,0,0,1-.37,1.12,3.3,3.3,0,0,1-2.44.91h-.2l-1.23-.05a2.27,2.27,0,0,0-1.63.54.35.35,0,0,0-.11.26l.09.63a1.41,1.41,0,0,1-.37,1.12,3.32,3.32,0,0,1-2.45.91h-.19l-1.24-.06a2.32,2.32,0,0,0-1.63.54c-.12.14-.11.24-.1.27l.08.62a1.41,1.41,0,0,1-.37,1.12,3.26,3.26,0,0,1-2.44.91h-.2l-1.24-.05a2.25,2.25,0,0,0-1.62.54.31.31,0,0,0-.11.26l.08.63a1.34,1.34,0,0,1-.37,1.12,3.3,3.3,0,0,1-2.44.91h-.2l-1.23-.05a2.27,2.27,0,0,0-1.63.54.37.37,0,0,0-.11.27l.09.62a1.41,1.41,0,0,1-.37,1.12,3.31,3.31,0,0,1-2.44.91h-.2l-1.91-.08a1.94,1.94,0,0,0-1.72.68l-.12.32C95.45,386.54,94.11,386.9,93.09,386.9Z" transform="translate(-9.68 -39.76)"/><ellipse id="Shadow-3" data-name="Shadow" class="cls-2" cx="386.22" cy="243.07" rx="48.44" ry="27.97"/><polygon id="Shadow-4" data-name="Shadow" class="cls-2" points="128.86 311.08 84.18 285.28 254.78 186.78 299.46 212.58 128.86 311.08"/><polygon id="Shadow-5" data-name="Shadow" class="cls-2" points="84.09 285.33 39.41 259.54 210.01 161.04 254.69 186.84 84.09 285.33"/><path id="Shadow-6" data-name="Shadow" class="cls-2" d="M246.74,457.1l-113-65.24c-2.91-1.68-2.91-4.4,0-6.08L301.1,289.16a11.63,11.63,0,0,1,10.53,0l113,65.24c2.91,1.68,2.91,4.4,0,6.08L257.28,457.1A11.65,11.65,0,0,1,246.74,457.1Z" transform="translate(-9.68 -39.76)"/><g id="Plants"><path class="cls-3" d="M420.09,253.63s-1.46-12,2.21-22.54S432.64,213,440,210.64s15,3.07,8.14,9.7-20,14.84-22.3,34.07Z" transform="translate(-9.68 -39.76)"/><g class="cls-4"><path d="M420.09,253.63s-1.46-12,2.21-22.54S432.64,213,440,210.64s15,3.07,8.14,9.7-20,14.84-22.3,34.07Z" transform="translate(-9.68 -39.76)"/></g><path class="cls-5" d="M421.56,250.06h-.09a.41.41,0,0,1-.34-.47c3.27-21.32,16.37-33,22.84-36.22a.41.41,0,1,1,.36.74c-6.33,3.14-19.17,14.62-22.39,35.6A.4.4,0,0,1,421.56,250.06Z" transform="translate(-9.68 -39.76)"/><path class="cls-3" d="M457.65,237.65c-.28,1.6-1.67,2.74-3,3.69s-2.74,2-3.19,3.53c-.9,3.14,2.66,6.35,1.62,9.45a5,5,0,0,1-2.87,2.78,32.17,32.17,0,0,1-3.22,1.11,11.14,11.14,0,0,1-1.6.27A7.35,7.35,0,0,0,441,260.1c-1.88,1.77-1.86,4.69-2.66,7.14a10.64,10.64,0,0,1-6.2,6.44c-2.39.94-6.23,1.31-7.15.37-.69-.71.14-3.58-.07-4.55a40,40,0,0,1-.9-7.57,14.24,14.24,0,0,0-.36-3.45c-.32-1.27-.63-2.53-.94-3.79s-.92-2.37-.77-3.87a14.52,14.52,0,0,1,1.24-4.12c.55-1.31,1.12-2.6,1.69-3.9a20.47,20.47,0,0,1,2.42-4.37,10.67,10.67,0,0,1,7.45-4c2.4-.19,5,.55,7.31-.15s4.39-1.86,6.78-2.29a8.46,8.46,0,0,1,7.21,1.75A4.47,4.47,0,0,1,457.65,237.65Z" transform="translate(-9.68 -39.76)"/><path class="cls-5" d="M425.49,267.42h0a.37.37,0,0,1-.36-.37c.38-22.93,22.26-31.67,27.65-32.61a.36.36,0,0,1,.42.3.36.36,0,0,1-.3.42c-5.27.92-26.67,9.47-27,31.9A.37.37,0,0,1,425.49,267.42Z" transform="translate(-9.68 -39.76)"/><path class="cls-5" d="M447.94,250.26a.41.41,0,0,1-.21,0,19.37,19.37,0,0,0-16.49-.51.36.36,0,0,1-.48-.2.35.35,0,0,1,.2-.47,20.17,20.17,0,0,1,17.15.55.36.36,0,0,1,.12.5A.35.35,0,0,1,447.94,250.26Z" transform="translate(-9.68 -39.76)"/></g><g id="Plants-2" data-name="Plants"><path class="cls-6" d="M89.29,280.32c.1-8.19-5.62-25.21-14-35.94s-21.62-18.66-31.15-15.53c-8.87,2.91-8,14.52,2.58,22.33s26.62,17.65,31.18,31l9.69,16.41Z" transform="translate(-9.68 -39.76)"/><path class="cls-5" d="M89.76,291.52a.59.59,0,0,1-.54-.48c-5.14-28-27.47-51-40.94-56.17a.6.6,0,0,1,.43-1.12C62.44,239,85.18,262.39,90.4,290.82a.6.6,0,0,1-.48.7Z" transform="translate(-9.68 -39.76)"/><path class="cls-7" d="M85.38,309.36c-1.26-4.62-6.79-12.28-15.81-18.66-10-7.06-22.65-10.4-25.52-15.84-3.45-6.52,2.09-12.59,12.41-11.18s28.3,15.71,30.95,37Z" transform="translate(-9.68 -39.76)"/><path class="cls-5" d="M87.43,304.55a.6.6,0,0,1-.51-.4c-8.28-24-26.44-32.66-34.88-33.86a.59.59,0,0,1-.51-.67.58.58,0,0,1,.67-.51c9.34,1.33,27.4,10.12,35.85,34.65a.59.59,0,0,1-.37.76A.54.54,0,0,1,87.43,304.55Z" transform="translate(-9.68 -39.76)"/></g><g id="Open_Envelope" data-name="Open Envelope"><path class="cls-3" d="M84.11,185.3l165.6-95.61,6.63,3.83a6.89,6.89,0,0,1,3.11,5.39V221.07a6.92,6.92,0,0,1-3.11,5.4L97,318.48a6.91,6.91,0,0,1-6.23,0l-3.51-2a6.89,6.89,0,0,1-3.12-5.39Z" transform="translate(-9.68 -39.76)"/><path class="cls-8" d="M84.11,185.3l165.6-95.61,6.63,3.83a6.89,6.89,0,0,1,3.11,5.39V221.07a6.92,6.92,0,0,1-3.11,5.4L97,318.48a6.91,6.91,0,0,1-6.23,0l-3.51-2a6.89,6.89,0,0,1-3.12-5.39Z" transform="translate(-9.68 -39.76)"/><path class="cls-3" d="M248.8,79l.67-.37-2.57-1.49h0a4.73,4.73,0,0,0-.68-.33l-72.88-27a5,5,0,0,0-5.6,1.78L86.21,170.59a14.13,14.13,0,0,0-2.1,6.8v7.91l2.53,1.47L249.71,89.69V81.78A5.36,5.36,0,0,0,248.8,79Z" transform="translate(-9.68 -39.76)"/><path class="cls-9" d="M171.12,52.11a4,4,0,0,0-.85.9L88.74,172.06a12.73,12.73,0,0,0-1.52,3.4L84.69,174a16.67,16.67,0,0,1,.66-1.8s0,0,0,0c.12-.25.23-.49.35-.72,0,0,0-.08.06-.11a6,6,0,0,1,.44-.72L167.74,51.54a3.8,3.8,0,0,1,.41-.49,5.36,5.36,0,0,1,.43-.4Z" transform="translate(-9.68 -39.76)"/><path class="cls-10" d="M249.45,78.57a3.42,3.42,0,0,0-.7-.33l-72.89-27a5,5,0,0,0-4.74.89l-2.54-1.46a5.06,5.06,0,0,1,4.76-.9l72.88,27a3.87,3.87,0,0,1,.68.33Z" transform="translate(-9.68 -39.76)"/><path class="cls-3" d="M85.78,171.31a8.06,8.06,0,0,1,.43-.72A8.06,8.06,0,0,0,85.78,171.31Z" transform="translate(-9.68 -39.76)"/><path class="cls-3" d="M168.15,51a5.56,5.56,0,0,1,.44-.39A4.09,4.09,0,0,0,168.15,51Z" transform="translate(-9.68 -39.76)"/><path class="cls-3" d="M84.69,174a14.94,14.94,0,0,1,.66-1.81A14.94,14.94,0,0,0,84.69,174Z" transform="translate(-9.68 -39.76)"/><path class="cls-3" d="M85.37,172.14c.11-.25.23-.48.35-.71C85.6,171.66,85.48,171.89,85.37,172.14Z" transform="translate(-9.68 -39.76)"/><path class="cls-11" d="M85.35,172.19s0,0,0-.05S85.36,172.18,85.35,172.19Z" transform="translate(-9.68 -39.76)"/><polygon class="cls-11" points="75.01 134.24 75.01 134.24 75.01 134.24 75.01 134.24"/><polygon class="cls-11" points="158.91 10.88 158.91 10.88 158.91 10.88 158.91 10.88"/><path class="cls-11" d="M85.72,171.43l.06-.12Z" transform="translate(-9.68 -39.76)"/><path class="cls-11" d="M167.74,51.54a3.89,3.89,0,0,1,.41-.5A3.89,3.89,0,0,0,167.74,51.54Z" transform="translate(-9.68 -39.76)"/><path class="cls-3" d="M170.27,53,88.74,172.06a14.13,14.13,0,0,0-2.1,6.8v7.91l165.6-95.62v-7.9a5.76,5.76,0,0,0-3.49-5l-72.89-27A5,5,0,0,0,170.27,53Z" transform="translate(-9.68 -39.76)"/><path class="cls-12" d="M170.27,53,88.74,172.06a14.13,14.13,0,0,0-2.1,6.8v7.91l165.6-95.62v-7.9a5.76,5.76,0,0,0-3.49-5l-72.89-27A5,5,0,0,0,170.27,53Z" transform="translate(-9.68 -39.76)"/><path class="cls-13" d="M252.24,83.25a5.23,5.23,0,0,0-.89-2.78l-164.13,95v0a12.51,12.51,0,0,0-.57,3.37v7.91l165.6-95.62Z" transform="translate(-9.68 -39.76)"/><path class="cls-1" d="M245.17,49.69a1.89,1.89,0,0,0-.78-1.73L239.33,45a1.89,1.89,0,0,0-1.9.19L101.6,123.65a5.94,5.94,0,0,0-2.69,4.65V291a1.9,1.9,0,0,0,.79,1.74l5,2.91a1.91,1.91,0,0,0,1.91-.19L242.48,217a6,6,0,0,0,2.69-4.66Z" transform="translate(-9.68 -39.76)"/><path class="cls-14" d="M106.65,295.44,242.48,217a6,6,0,0,0,2.69-4.66V49.69c0-1.71-1.21-2.41-2.69-1.55L106.64,126.56a6,6,0,0,0-2.68,4.66V293.89C104,295.6,105.16,296.3,106.65,295.44Z" transform="translate(-9.68 -39.76)"/><path class="cls-2" d="M104,293.89a2,2,0,0,0,.64,1.64c-.91-.51-4.44-2.56-4.88-2.81a1.87,1.87,0,0,1-.8-1.74V128.3a5.32,5.32,0,0,1,.8-2.64l5,2.9a5.39,5.39,0,0,0-.8,2.66Z" transform="translate(-9.68 -39.76)"/><path class="cls-2" d="M229.8,73,205.66,87a4.65,4.65,0,0,0-2.16,3.59c0,1.3,1,1.79,2.17,1.1L229.8,77.7A4.65,4.65,0,0,0,232,74.11C232,72.81,231,72.32,229.8,73Z" transform="translate(-9.68 -39.76)"/><path class="cls-2" d="M120.39,145.56l44.42-25.64c1.19-.69,2.16-.2,2.16,1.09a4.64,4.64,0,0,1-2.17,3.6l-44.41,25.64c-1.19.69-2.16.2-2.16-1.1A4.62,4.62,0,0,1,120.39,145.56Z" transform="translate(-9.68 -39.76)"/><path class="cls-2" d="M120.39,159.63,229.8,96.46c1.19-.69,2.16-.2,2.16,1.1a4.65,4.65,0,0,1-2.16,3.59L120.39,164.32c-1.2.69-2.16.2-2.16-1.09A4.65,4.65,0,0,1,120.39,159.63Z" transform="translate(-9.68 -39.76)"/><path class="cls-2" d="M120.39,169,229.8,105.84c1.19-.69,2.16-.19,2.16,1.1a4.65,4.65,0,0,1-2.16,3.6L120.39,173.7c-1.2.69-2.16.2-2.16-1.09A4.65,4.65,0,0,1,120.39,169Z" transform="translate(-9.68 -39.76)"/><path class="cls-2" d="M120.39,178.39,229.8,115.23c1.19-.69,2.16-.2,2.16,1.09a4.65,4.65,0,0,1-2.16,3.6L120.39,183.08c-1.2.69-2.16.2-2.16-1.09A4.65,4.65,0,0,1,120.39,178.39Z" transform="translate(-9.68 -39.76)"/><path class="cls-2" d="M120.39,193.81,229.8,130.64c1.19-.69,2.16-.2,2.16,1.1a4.65,4.65,0,0,1-2.16,3.59L120.39,198.5c-1.2.69-2.16.2-2.16-1.1A4.65,4.65,0,0,1,120.39,193.81Z" transform="translate(-9.68 -39.76)"/><path class="cls-2" d="M120.39,203.19,229.8,140c1.19-.69,2.16-.2,2.16,1.1a4.65,4.65,0,0,1-2.16,3.59L120.39,207.88c-1.2.69-2.16.2-2.16-1.1A4.65,4.65,0,0,1,120.39,203.19Z" transform="translate(-9.68 -39.76)"/><path class="cls-2" d="M120.39,212.57,229.8,149.4c1.19-.69,2.16-.2,2.16,1.1a4.67,4.67,0,0,1-2.16,3.6L120.39,217.26c-1.2.69-2.16.2-2.16-1.09A4.65,4.65,0,0,1,120.39,212.57Z" transform="translate(-9.68 -39.76)"/><path class="cls-3" d="M255.25,222.7a1.84,1.84,0,0,1-.17.25l-69-21.88a11.87,11.87,0,0,0-14.91,4.59L97.38,315.31l-2.73,1.57h0a2.21,2.21,0,0,1-2.11.24l75.87-113a11.93,11.93,0,0,1,14.93-4.61Z" transform="translate(-9.68 -39.76)"/><path class="cls-15" d="M164.36,216.42l.18-.15-67.16,99-2.73,1.58h0a2.26,2.26,0,0,1-2.11.24l69.2-102.31Z" transform="translate(-9.68 -39.76)"/><path class="cls-15" d="M255.26,222.7a1.3,1.3,0,0,1-.18.25l-69-21.89a11.88,11.88,0,0,0-14.91,4.6l-2.73-1.59a11.91,11.91,0,0,1,14.9-4.57Z" transform="translate(-9.68 -39.76)"/><path class="cls-3" d="M259.4,98.13h0c-.15-.89-.62-1.14-1.23-.72a3.67,3.67,0,0,0-.79.82l-.35.48-68.1,103.54-10.17,14.16a5.78,5.78,0,0,1-5.6,2.1l-8.77-2.08-67-24.67a3.36,3.36,0,0,0-1.37,0,2,2,0,0,0-.51.16L98,190.41,162.25,214l8.46,3a5.76,5.76,0,0,0,5.6-2.1l10.17-14.15,68.43-104a2.78,2.78,0,0,1,.77-.7l-5.92-3.42,2.48-1.43,4.1,2.36A7.15,7.15,0,0,1,259.4,98.13Z" transform="translate(-9.68 -39.76)"/><path class="cls-15" d="M188.91,202.24l-10.17,14.17a5.82,5.82,0,0,1-5.6,2.1l-8.78-2.09.18-.15.42-.67,5.75,1.37a5.79,5.79,0,0,0,5.6-2.1l10.06-14Z" transform="translate(-9.68 -39.76)"/><path class="cls-9" d="M256.34,93.51l-4.1-2.36-2.48,1.43L255.68,96h0a2.69,2.69,0,0,0-.77.7l-68.44,104-.1.14h0l2.54,1.38L257,98.71l.34-.49a3.6,3.6,0,0,1,.8-.81c.61-.43,1.08-.18,1.23.72h0A7.1,7.1,0,0,0,256.34,93.51Z" transform="translate(-9.68 -39.76)"/><path class="cls-3" d="M98.72,193.74,84.11,185.3V311.06a6.89,6.89,0,0,0,3.12,5.39l3.51,2a6.91,6.91,0,0,0,6.23,0l1.75-1Z" transform="translate(-9.68 -39.76)"/><path class="cls-8" d="M98.72,193.74,84.11,185.3V311.06a6.89,6.89,0,0,0,3.12,5.39l3.51,2a6.91,6.91,0,0,0,6.23,0l1.75-1Z" transform="translate(-9.68 -39.76)"/><path class="cls-3" d="M259.46,98.91V221.07a6.39,6.39,0,0,1-1,3.15,6.75,6.75,0,0,1-1.83,2.05l-.12.06a1.43,1.43,0,0,1-.2.14L97,318.47h0a2.21,2.21,0,0,1-2.12.25,1.88,1.88,0,0,1-.93-1.49,3.28,3.28,0,0,1,0-.56V194.51a2.7,2.7,0,0,1,3.5-2.75l67,24.67,8.77,2.08a5.78,5.78,0,0,0,5.6-2.1l10.17-14.16L257,98.71l.35-.48C258.51,96.63,259.46,96.93,259.46,98.91Z" transform="translate(-9.68 -39.76)"/><path class="cls-11" d="M259.46,98.91V221.07a6.39,6.39,0,0,1-1,3.15,6.75,6.75,0,0,1-1.83,2.05l-.12.06a1.43,1.43,0,0,1-.2.14L97,318.47h0a2.21,2.21,0,0,1-2.12.25,1.88,1.88,0,0,1-.93-1.49,3.28,3.28,0,0,1,0-.56V194.51a2.7,2.7,0,0,1,3.5-2.75l63.58,23.4,3,1.11.42.16,8.77,2.08a5.78,5.78,0,0,0,5.6-2.1l10.17-14.16L257,98.71l.35-.48C258.51,96.63,259.46,96.93,259.46,98.91Z" transform="translate(-9.68 -39.76)"/><path class="cls-3" d="M164,216.27,94.82,318.73a2.17,2.17,0,0,1-1-2.05v-2l68-100.84S164,216.27,164,216.27Z" transform="translate(-9.68 -39.76)"/><path class="cls-16" d="M171.16,205.66,94.82,318.73a2.17,2.17,0,0,1-1-2.05v-2l74.53-110.54S171.16,205.66,171.16,205.66Z" transform="translate(-9.68 -39.76)"/><path class="cls-3" d="M256.34,226.47a1.13,1.13,0,0,0,.2-.13l.12-.07a6.71,6.71,0,0,0,1.83-2,6.37,6.37,0,0,0,1-3.1l-70.53-18.88,47.23,35.88Z" transform="translate(-9.68 -39.76)"/><path class="cls-16" d="M256.34,226.47a1.13,1.13,0,0,0,.2-.13l.12-.07a6.71,6.71,0,0,0,1.83-2,6.37,6.37,0,0,0,1-3.1l-70.53-18.88,47.23,35.88Z" transform="translate(-9.68 -39.76)"/><path class="cls-3" d="M258.49,224.23a6.71,6.71,0,0,1-1.83,2l-.12.07L97,318.48h0a2.2,2.2,0,0,1-2.12.24l76.31-113.11a12,12,0,0,1,15-4.6Z" transform="translate(-9.68 -39.76)"/><path class="cls-12" d="M258.49,224.23a6.71,6.71,0,0,1-1.83,2l-.12.07L97,318.48h0a2.2,2.2,0,0,1-2.12.24l76.31-113.11a12,12,0,0,1,15-4.6Z" transform="translate(-9.68 -39.76)"/><path class="cls-12" d="M84.69,174l2.53,1.46a12.37,12.37,0,0,0-.58,3.4v7.9l-2.53-1.46v-7.91A12.36,12.36,0,0,1,84.69,174Z" transform="translate(-9.68 -39.76)"/><polygon class="cls-3" points="88.33 150.65 85.81 152.1 83.25 150.63 76.95 147 79.4 145.55 88.33 150.65"/><path class="cls-9" d="M98.12,190.46l-9-5.15-2.45,1.46,6.3,3.62,2.55,1.48,0,0a3.82,3.82,0,0,1,.48-.15,3.5,3.5,0,0,1,1.36.05l5.1,1.88,58.49,21.53.91-1.35Z" transform="translate(-9.68 -39.76)"/></g><g id="Back_Envelope" data-name="Back Envelope"><g id="Envelope"><g id="Letter"><path class="cls-3" d="M128.48,210.38a7.11,7.11,0,0,1,3.22-5.58l158.82-91.69a7.16,7.16,0,0,1,6.44,0l3.63,2.1a7.11,7.11,0,0,1,3.21,5.57V247a7.13,7.13,0,0,1-3.21,5.58L141.76,344.29a7.14,7.14,0,0,1-6.43,0l-3.63-2.1a7.14,7.14,0,0,1-3.22-5.57Z" transform="translate(-9.68 -39.76)"/><path class="cls-3" d="M129.4,207.22l9.14,5.27,164.3-94.86a6.6,6.6,0,0,0-2.27-2.41l-3.64-2.08a7,7,0,0,0-6.42,0L131.68,204.82A6.68,6.68,0,0,0,129.4,207.22Z" transform="translate(-9.68 -39.76)"/><path class="cls-10" d="M129.4,207.22l9.14,5.27,164.3-94.86a6.6,6.6,0,0,0-2.27-2.41l-3.64-2.08a7,7,0,0,0-6.42,0L131.68,204.82A6.68,6.68,0,0,0,129.4,207.22Z" transform="translate(-9.68 -39.76)"/><path class="cls-13" d="M128.46,210.39V336.63a7.08,7.08,0,0,0,3.22,5.57l3.63,2.1a4.72,4.72,0,0,0,.88.4,7.4,7.4,0,0,0,1.33.31,8,8,0,0,0,2.54-.09l.63-.16.39-.14a1.87,1.87,0,0,1-1.55-.06,2.22,2.22,0,0,1-1-2.11v-130l-9.14-5.27A6.62,6.62,0,0,0,128.46,210.39Z" transform="translate(-9.68 -39.76)"/></g></g><path class="cls-7" d="M156.08,223.45l46.15-26.64c.72-.42,1.3-.08,1.3.75v.36a2.86,2.86,0,0,1-1.3,2.25l-46.15,26.64c-.71.42-1.3.08-1.3-.75v-.36A2.9,2.9,0,0,1,156.08,223.45Z" transform="translate(-9.68 -39.76)"/><path class="cls-7" d="M156.08,231.15l46.15-26.64c.72-.42,1.3-.08,1.3.75v.36a2.86,2.86,0,0,1-1.3,2.25l-46.15,26.64c-.71.42-1.3.08-1.3-.75v-.36A2.9,2.9,0,0,1,156.08,231.15Z" transform="translate(-9.68 -39.76)"/><path class="cls-7" d="M156.08,238.85l46.15-26.64c.72-.42,1.3-.08,1.3.75v.36a2.86,2.86,0,0,1-1.3,2.25l-46.15,26.64c-.71.42-1.3.08-1.3-.75v-.36A2.88,2.88,0,0,1,156.08,238.85Z" transform="translate(-9.68 -39.76)"/><path class="cls-7" d="M239.91,236.48l46.14-26.64c.72-.42,1.3-.08,1.3.75V211a2.86,2.86,0,0,1-1.3,2.25l-46.14,26.64c-.72.42-1.3.08-1.3-.75v-.36A2.86,2.86,0,0,1,239.91,236.48Z" transform="translate(-9.68 -39.76)"/><path class="cls-7" d="M239.91,244.18l46.14-26.64c.72-.42,1.3-.08,1.3.75v.36a2.87,2.87,0,0,1-1.3,2.25l-46.14,26.64c-.72.42-1.3.08-1.3-.75v-.36A2.86,2.86,0,0,1,239.91,244.18Z" transform="translate(-9.68 -39.76)"/><path class="cls-7" d="M239.91,251.88l46.14-26.65c.72-.41,1.3-.07,1.3.75v.37a2.87,2.87,0,0,1-1.3,2.25l-46.14,26.64c-.72.41-1.3.08-1.3-.75v-.36A2.86,2.86,0,0,1,239.91,251.88Z" transform="translate(-9.68 -39.76)"/><path class="cls-7" d="M239.91,259.58l46.14-26.65c.72-.41,1.3-.08,1.3.75v.37a2.87,2.87,0,0,1-1.3,2.25l-46.14,26.64c-.72.41-1.3.08-1.3-.75v-.36A2.86,2.86,0,0,1,239.91,259.58Z" transform="translate(-9.68 -39.76)"/></g><g id="Envelope-2" data-name="Envelope"><path class="cls-3" d="M418.14,346.1a.76.76,0,0,0,0-.16,0,0,0,0,0,0-.05.77.77,0,0,0,0-.15.39.39,0,0,0-.05-.2.82.82,0,0,0-.1-.24,2.23,2.23,0,0,0-.78-.86l0,0a.35.35,0,0,1-.12-.07l-.14-.08a.1.1,0,0,0-.05,0l-104.7-60.46-.2-.11a11.62,11.62,0,0,0-6.09-1.43h-.09a11.31,11.31,0,0,0-5.15,1.52h0L293,288.13l-132,76.25-16.83,9.71-.05,0a4.15,4.15,0,0,0-1.57,3v9.32a4.11,4.11,0,0,0,2.06,3.58h0l1.66.95,102.62,59.25a6.92,6.92,0,0,0,6.29,0h0l141.2-81.51,20.48-11.83.2-.13.12-.07a2.08,2.08,0,0,0,1-1.57C418.14,355,418.11,346.66,418.14,346.1Z" transform="translate(-9.68 -39.76)"/><path class="cls-16" d="M250.1,450.76l.23.07a7.21,7.21,0,0,0,.81.14h0c.2,0,.41,0,.61,0H252V442a6.41,6.41,0,0,1-3.17-.75L144.57,381a4.07,4.07,0,0,1-2.08-3.8v9.28a4.11,4.11,0,0,0,2.06,3.58h0l1.66.95,102.62,59.25a5.17,5.17,0,0,0,.71.34Z" transform="translate(-9.68 -39.76)"/><path class="cls-12" d="M418.14,355.15a2.08,2.08,0,0,1-1,1.57l-.12.07-.2.13-20.48,11.83-141.2,81.51h0a6.46,6.46,0,0,1-3,.75H252V442a6.71,6.71,0,0,0,3.12-.74h0L417,347.74l.12-.08a2.06,2.06,0,0,0,1-1.56C418.11,346.66,418.14,355,418.14,355.15Z" transform="translate(-9.68 -39.76)"/><path class="cls-17" d="M418.14,346.1a2.06,2.06,0,0,1-1,1.56l-.12.08-20.69,11.94-85.52,49.39-55.67,32.14h0a6.34,6.34,0,0,1-3,.74,6.47,6.47,0,0,1-3.27-.75l-1.79-1L167.15,394,146.22,382l-1.66-.95h0a4.13,4.13,0,0,1-2.06-3.73v-.12a4.15,4.15,0,0,1,1.57-3l.05,0,16.83-9.71,132-76.25,7.61-4.38h0a11.31,11.31,0,0,1,5.15-1.52h.09a11.62,11.62,0,0,1,6.09,1.43l.2.11,104.7,60.46a.1.1,0,0,1,.05,0l.14.08a.35.35,0,0,0,.12.07l0,0a2.23,2.23,0,0,1,.78.86.82.82,0,0,1,.1.24.39.39,0,0,1,.05.2.44.44,0,0,1,0,.15,0,0,0,0,1,0,.05A.76.76,0,0,1,418.14,346.1Z" transform="translate(-9.68 -39.76)"/><path class="cls-3" d="M418.14,346.1a2.06,2.06,0,0,1-1,1.56l-.12.08-20.69,11.94-85.52,49.39-55.67,32.14h0a6.34,6.34,0,0,1-3,.74,6.47,6.47,0,0,1-3.27-.75l-1.79-1L167.15,394,146.22,382l-1.66-.95h0a4.13,4.13,0,0,1-2.06-3.73v-.12a13.14,13.14,0,0,1,1.91-.33L163.15,375l97.24-9.68h0l15.18-1.52c3.34-.33,6.34-1.55,6.66-2.7l3.05-10.16h0l19-63.59,1.43-4.73v-.06a1.18,1.18,0,0,1,.13-.3,11.62,11.62,0,0,1,6.09,1.43l.2.11,4.55,2.64,100.15,57.82a.1.1,0,0,1,.05,0l.14.08a.35.35,0,0,0,.12.07l0,0a2.23,2.23,0,0,1,.78.86.82.82,0,0,1,.1.24.39.39,0,0,1,.05.2.44.44,0,0,1,0,.15,0,0,0,0,1,0,.05A.76.76,0,0,1,418.14,346.1Z" transform="translate(-9.68 -39.76)"/><path class="cls-16" d="M416.84,347.86a1.32,1.32,0,0,0,.2-.12l.12-.07a2.09,2.09,0,0,0,1-1.57,2.14,2.14,0,0,0-1.25-1.86L298.75,350l-.25,2.38,97.86,7.32Z" transform="translate(-9.68 -39.76)"/><path class="cls-16" d="M248.83,441.21a6.54,6.54,0,0,0,3.28.75,6.37,6.37,0,0,0,3-.74h0l55.66-32.14L269,372.71l-9.95.35-12,67.12Z" transform="translate(-9.68 -39.76)"/><path class="cls-3" d="M418.14,346.1a2.09,2.09,0,0,1-1,1.57l-.12.07L255.16,441.21h0a6.37,6.37,0,0,1-3,.74l9.1-84.14c.37-3.49,8.38-6.36,18.78-6.73Z" transform="translate(-9.68 -39.76)"/><path class="cls-16" d="M305.85,282.21l-.52,5-6.61,63,0,.18-.16,1.55-1.43,13.68c-.37,3.49-8.37,6.36-18.8,6.74l-9.35.34h0l-9.38.34H259l-95.53,3.45-21,.76v-.12a4.15,4.15,0,0,1,1.57-3l.05,0,16.83-9.71L293,288.13l7.58-4.38h0a11.31,11.31,0,0,1,5.15-1.52Z" transform="translate(-9.68 -39.76)"/><path class="cls-3" d="M305.76,282.22l0,.29v.06l-.78,4.69-10.38,63.18,0,.12-.17,1.06-1.91,11.63c-.54,3.28-7.84,6-17.56,6.54l-8.73.49h0l-6.33.35-.39,0L163.38,376l-20.89,1.17v0a4.15,4.15,0,0,1,1.57-3l.05,0,16.83-9.71L293,288.13l7.58-4.38h0A11.31,11.31,0,0,1,305.76,282.22Z" transform="translate(-9.68 -39.76)"/><path class="cls-14" d="M286.21,377.54c-7.65,0-12.09-1.41-14-2.25-3.36-1.44-5.49-3.79-5.83-6.44a6.83,6.83,0,0,1,3-6.29,17.41,17.41,0,0,1,10.53-3.13c.55,0,1.11,0,1.66.07a5.92,5.92,0,0,1,.09-1.78c.47-2.18,2.2-4,4.89-5.08a16.8,16.8,0,0,1,6.24-1.12,18.87,18.87,0,0,1,10.94,3.29c1.8,1.35,7.42,6.48,4.14,16l-1.59,4.55-7.63,1.18a81,81,0,0,1-12.37,1Z" transform="translate(-9.68 -39.76)"/><path class="cls-7" d="M287.25,354.49c-4,1.65-4.89,4.9-2.28,7.64-4.91-1.42-11-.63-14.42,2-3.8,3-2.72,7.13,2.4,9.32,2.58,1.11,10.21,3.43,25.33,1.09l6.45-1,1.19-3.4c2.76-8-1.49-12.26-3.45-13.72C298.58,353.5,291.77,352.65,287.25,354.49Z" transform="translate(-9.68 -39.76)"/></g><g id="Mail_Stamp" data-name="Mail Stamp"><path class="cls-14" d="M28.16,337.88l1.08,0c1.39.06,2.56-.61,2.45-1.41l-.08-.63c-.11-.8,1-1.47,2.45-1.41l1.08,0c1.39.06,2.55-.61,2.45-1.41l-.09-.63c-.1-.8,1.06-1.47,2.45-1.41l1.08,0c1.4.07,2.56-.6,2.45-1.41l-.08-.62c-.11-.81,1.05-1.48,2.45-1.42l1.08,0c1.39.06,2.55-.61,2.45-1.41l-.08-.63c-.11-.8,1.05-1.47,2.44-1.41l1.76.08a2.45,2.45,0,0,0,2.4-1L56,323c.47-1.25,3.43-1.42,4.32-.25h0a2.87,2.87,0,0,0,2.41.78l1.29-.11c1.51-.12,2.8.62,2.58,1.49h0c-.21.87,1.08,1.61,2.58,1.49h0c1.51-.12,2.8.62,2.58,1.49h0c-.21.87,1.08,1.61,2.58,1.49h0c1.51-.12,2.8.62,2.58,1.49h0c-.21.87,1.08,1.61,2.58,1.49h0c1.51-.13,2.8.62,2.58,1.49h0c-.21.87,1.08,1.61,2.58,1.49h0c1.51-.13,2.8.62,2.58,1.49l-.18.74c-.15.59.4,1.16,1.34,1.39h0c2,.51,1.73,2.22-.43,2.49l-.54.07c-1.11.14-1.88.73-1.79,1.39l.13,1c.11.8-1,1.47-2.45,1.41l-1.08,0c-1.39-.06-2.55.61-2.45,1.42l.09.62c.1.81-1.06,1.48-2.45,1.42l-1.08-.05c-1.4-.06-2.56.61-2.45,1.41l.08.63c.11.8-1,1.47-2.45,1.41l-1.08,0c-1.39-.06-2.55.61-2.45,1.42l.08.62c.11.81-1.05,1.48-2.44,1.41l-1.09,0c-1.39-.06-2.55.61-2.45,1.41l.09.62c.1.81-1.06,1.48-2.45,1.42L58,358.88a2.46,2.46,0,0,0-2.41,1l-.11.32c-.47,1.24-3.44,1.41-4.32.24h0a2.84,2.84,0,0,0-2.41-.78l-1.29.11c-1.51.12-2.79-.63-2.58-1.49h0c.21-.87-1.08-1.62-2.58-1.49h0c-1.51.12-2.79-.62-2.58-1.49h0c.21-.87-1.08-1.62-2.58-1.49h0c-1.5.12-2.79-.62-2.58-1.49h0c.21-.87-1.08-1.61-2.58-1.49h0c-1.5.12-2.79-.62-2.58-1.49h0c.21-.87-1.07-1.61-2.58-1.49h0c-1.5.12-2.79-.62-2.58-1.49l.18-.74c.15-.59-.4-1.16-1.34-1.4h0c-2-.51-1.74-2.22.42-2.49l.55-.07c1.11-.14,1.87-.73,1.78-1.39l-.13-1C25.6,338.48,26.77,337.81,28.16,337.88Z" transform="translate(-9.68 -39.76)"/><path class="cls-3" d="M29.6,340.38l24-13.88c2.3-1.32,5.54-1.59,7.26-.6L83,338.65c1.72,1,1.25,2.86-1,4.19l-24,13.87c-2.29,1.33-5.54,1.59-7.26.6L28.56,344.57C26.84,343.58,27.31,341.7,29.6,340.38Z" transform="translate(-9.68 -39.76)"/><path class="cls-3" d="M72.12,335.71a.32.32,0,0,1-.27,0,11.49,11.49,0,0,0-10.39,0c-2.85,1.65-2.83,4.34,0,6,.07.05.07.12,0,.16a.26.26,0,0,1-.27,0c-3-1.74-3-4.57,0-6.31a12.13,12.13,0,0,1,10.93,0C72.2,335.6,72.2,335.67,72.12,335.71Z" transform="translate(-9.68 -39.76)"/><path class="cls-3" d="M56.17,344.92a.34.34,0,0,1-.28,0,11.47,11.47,0,0,0-10.38,0c-2.85,1.65-2.84,4.34,0,6,.08,0,.08.11,0,.15a.26.26,0,0,1-.27,0c-3-1.74-3-4.57,0-6.31a12.15,12.15,0,0,1,10.94,0C56.24,344.81,56.24,344.88,56.17,344.92Z" transform="translate(-9.68 -39.76)"/><path class="cls-3" d="M45.83,340.42a4.36,4.36,0,0,0-1.28.56c-.6.39-.71.73-.19,1.07a.46.46,0,0,0,.44,0,2.18,2.18,0,0,1,.66-.37,2.4,2.4,0,0,0,.89-.35c.2-.17.26-.5.61-.81a5.56,5.56,0,0,1,1-.6l.23-.16c.12-.08.08-.21-.09-.25a1.33,1.33,0,0,0-.9,0C46.79,339.72,46.37,340.2,45.83,340.42Z" transform="translate(-9.68 -39.76)"/><path class="cls-3" d="M63,344.19l-1.07.62a.37.37,0,0,1-.29,0c-.08-.05-.08-.12,0-.17l1.07-.62a.37.37,0,0,1,.29,0C63,344.07,63,344.14,63,344.19Z" transform="translate(-9.68 -39.76)"/><path class="cls-3" d="M50.27,334.39c-.34-.2-.38-.5-.09-.67a1.32,1.32,0,0,1,1.16,0c.34.2.38.5.09.67A1.29,1.29,0,0,1,50.27,334.39Z" transform="translate(-9.68 -39.76)"/><path class="cls-3" d="M51.09,334.25l-1.78,1c-.23.13-.81-.2-.58-.33l1.78-1C50.71,333.8,51.29,334.14,51.09,334.25Z" transform="translate(-9.68 -39.76)"/></g><g id="Mail_Stamp-2" data-name="Mail Stamp"><path class="cls-14" d="M68,361.79l1.08,0c1.4.06,2.56-.61,2.45-1.42l-.08-.62c-.11-.81,1-1.48,2.45-1.42l1.08.05c1.39.06,2.55-.61,2.45-1.41l-.08-.63c-.11-.8,1-1.47,2.44-1.41l1.09,0c1.39.06,2.55-.61,2.44-1.42l-.08-.62c-.1-.81,1.06-1.48,2.45-1.41l1.08,0c1.4.06,2.56-.61,2.45-1.41l-.08-.62c-.11-.81,1-1.48,2.45-1.42l1.75.08a2.44,2.44,0,0,0,2.4-1l.12-.32c.47-1.24,3.43-1.41,4.32-.24h0a2.89,2.89,0,0,0,2.42.77l1.29-.11c1.5-.12,2.79.63,2.58,1.49h0c-.22.87,1.07,1.62,2.58,1.49h0c1.5-.12,2.79.62,2.58,1.49h0c-.22.87,1.07,1.62,2.58,1.49h0c1.5-.12,2.79.62,2.57,1.49h0c-.21.87,1.08,1.61,2.58,1.49h0c1.51-.12,2.8.62,2.58,1.49h0c-.21.87,1.08,1.61,2.58,1.49h0c1.51-.12,2.8.62,2.58,1.49l-.18.74c-.14.59.41,1.16,1.34,1.4h0c2,.51,1.73,2.22-.43,2.49l-.54.07c-1.11.14-1.88.73-1.79,1.39l.13,1c.11.81-1,1.48-2.44,1.41l-1.09,0c-1.39-.06-2.55.61-2.44,1.41l.08.63c.1.8-1.06,1.47-2.45,1.41l-1.08-.05c-1.4-.06-2.56.61-2.45,1.41l.08.63c.11.8-1,1.47-2.45,1.41l-1.08,0c-1.39-.07-2.55.6-2.45,1.41l.09.62c.1.81-1.06,1.48-2.45,1.42l-1.09-.05c-1.39-.06-2.55.61-2.44,1.41l.08.63c.1.8-1.06,1.47-2.45,1.41l-1.75-.08a2.44,2.44,0,0,0-2.4,1l-.12.31c-.47,1.25-3.43,1.42-4.32.25h0a2.86,2.86,0,0,0-2.41-.78l-1.29.11c-1.5.12-2.79-.62-2.58-1.49h0c.21-.87-1.07-1.61-2.58-1.49h0c-1.5.12-2.79-.62-2.58-1.49h0c.21-.87-1.07-1.61-2.58-1.49h0c-1.5.12-2.79-.62-2.58-1.49h0c.22-.87-1.07-1.61-2.58-1.49h0c-1.5.13-2.79-.62-2.58-1.49h0c.22-.87-1.07-1.61-2.58-1.49h0c-1.5.13-2.79-.62-2.58-1.49l.19-.74c.14-.59-.41-1.16-1.35-1.39h0c-2-.51-1.73-2.22.43-2.49l.54-.07c1.11-.14,1.87-.73,1.79-1.39l-.14-1C65.43,362.4,66.59,361.73,68,361.79Z" transform="translate(-9.68 -39.76)"/><path class="cls-7" d="M69.42,364.29l24-13.87c2.29-1.33,5.54-1.59,7.25-.6l22.07,12.74c1.72,1,1.26,2.87-1,4.19l-24,13.88c-2.29,1.32-5.54,1.59-7.26.6L68.38,368.48C66.67,367.49,67.13,365.62,69.42,364.29Z" transform="translate(-9.68 -39.76)"/><path class="cls-1" d="M104.06,359.22a.85.85,0,0,0-.64-1.1,3.11,3.11,0,0,0-2.07.4s-.54-.51-2.12-.36S96.62,359,95.7,361a2.47,2.47,0,0,0-.18.57,3.33,3.33,0,0,0-.66-1.35c-.67-.85-2.14-2.62-4.43-2.44s-2,1-2,1a3.1,3.1,0,0,0-2,0c-.74.41,0,1.26,0,1.26a1.56,1.56,0,0,0-1.25,1.05c-.25.94.47,1.65,3.6,2.62.9.28,1.87.55,2.8.78-1.68-.13-3.47-.26-4.22-.28-1.62,0-5.07.14-5.47,1.45S83,367,83,367s-1.06.57-.6,1.11,2.09.38,2.09.38-.09.59,1.34,1,2.87.25,5.44-1.17c.68-.38,1.37-.8,2-1.21-.72.87-1.46,1.79-1.72,2.2-.57.87-1.34,2.82.7,3.45s2.6-.14,2.6-.14a2,2,0,0,0,1.64.67,1.45,1.45,0,0,0,1.27-1,3,3,0,0,0,2.08-.43c1.15-.67,1.3-1.49-.24-3.34A21.41,21.41,0,0,0,98,366.88c1.24.68,2.56,1.39,3.16,1.67,1.26.58,4.24,1.61,5.9.68s.57-1.48.57-1.48,1.43-.1,1.61-.69-1.3-1-1.3-1,.67-.46-.06-1.28-2.21-1.35-5.73-1.08l-.58.06a15.86,15.86,0,0,0,1.94-.69c1.37-.67,3.78-1.87,2.77-3.07A2.29,2.29,0,0,0,104.06,359.22Z" transform="translate(-9.68 -39.76)"/><path class="cls-2" d="M101.66,360.63a10.68,10.68,0,0,0-4.15,2c-.66.49-2,1.52-1.39,2.2a.53.53,0,0,0,.4,0c1.19-.29,1.61-1.27,2.27-1.88a26.9,26.9,0,0,1,3.13-2.06C102.1,360.76,102,360.59,101.66,360.63Z" transform="translate(-9.68 -39.76)"/><path class="cls-2" d="M95.66,365.36h0l-.11.07a.35.35,0,0,0-.1-.25c.17-.05.31-.15.32-.25.24-1.86-3.74-3.82-6.48-4.36-.09,0-.44.05-.3.13A22.74,22.74,0,0,1,92.54,363c.67.56,1.26,1.41,2,2a5.24,5.24,0,0,0-.56,0,12.92,12.92,0,0,0-2.43.22c-1.91.38-4.53,1-5.61,2.1-.12.12.27.11.36.08a23.09,23.09,0,0,1,4.55-1.07,11.48,11.48,0,0,1,3.51-.13,1.12,1.12,0,0,0,.69-.09,6.65,6.65,0,0,0-.56,2.25,2.62,2.62,0,0,0,1.15,2.44c.16.1.69,0,.57-.17-.31-.35-.17-.89-.24-1.28a4.64,4.64,0,0,1,.08-1.66,4.9,4.9,0,0,1,.34-1.11c.06-.13.11-.25.16-.38h0l.06-.11a19.42,19.42,0,0,0,2.19.14,21.76,21.76,0,0,1,5.07.84c.15.05.58-.05.42-.17a12.19,12.19,0,0,0-4.74-1.66C98.68,365,96,364.42,95.66,365.36Z" transform="translate(-9.68 -39.76)"/><path class="cls-3" d="M97.25,364.21a1,1,0,0,1,0,1.86,3.56,3.56,0,0,1-3.21,0,1,1,0,0,1,0-1.86A3.56,3.56,0,0,1,97.25,364.21Z" transform="translate(-9.68 -39.76)"/><path class="cls-9" d="M96.1,365.91a2.66,2.66,0,0,1-2.68-1c-.15.41.06.86.62,1.18a3.56,3.56,0,0,0,3.21,0c.58-.34.78-.81.6-1.24A2,2,0,0,1,96.1,365.91Z" transform="translate(-9.68 -39.76)"/></g><g id="Character"><path class="cls-18" d="M377.56,107c-3.48-2.83-12.33-8.38-14.84-10-2.9-1.89-6.73-4.56-9.53-6.59,0,0-11.3-18.07-11.4-19.83l-2.51-6.8c-.37-1.08,0-3.73.22-5.41.23-1.87.68-3.51.81-4.31.53-3.2-4.07-4.67-6.15-3.11a11,11,0,0,0-3.55,5.26c-2.64,8,2.63,17.38,2.63,17.38s7.44,16.89,9,19.94a18.86,18.86,0,0,0,4.37,6.2s13.57,11,16.49,13.19c3.66,2.8,5.18,4.14,7.75,4.67,1.43.3,1.44.26,5.67.28a14.06,14.06,0,0,0,1.23-3.6C377.86,113.31,378.32,107.65,377.56,107Z" transform="translate(-9.68 -39.76)"/><path class="cls-7" d="M364.43,114.61l5.05,3.84,11.89-11.14c-1.46-1.18-4.53-2.44-7.27-3.77-1.42-.69-3-1.42-5.13-2.7C369,100.84,364.47,107.2,364.43,114.61Z" transform="translate(-9.68 -39.76)"/><g id="Letter-2" data-name="Letter"><path class="cls-3" d="M314.14,48a.57.57,0,0,1,.41-.68l28-7.57a1.91,1.91,0,0,1,1.23.24l.77.43a1.78,1.78,0,0,1,.81.91l4.52,18a.57.57,0,0,1-.41.68l-28,7.57a2,2,0,0,1-1.23-.24l-.77-.43a1.82,1.82,0,0,1-.81-.91Z" transform="translate(-9.68 -39.76)"/><path class="cls-15" d="M314.2,47.62l1.94,1.09,29-7.83a2.09,2.09,0,0,0-.52-.42l-.77-.43a1.91,1.91,0,0,0-1.23-.24l-28,7.57A.62.62,0,0,0,314.2,47.62Z" transform="translate(-9.68 -39.76)"/><path class="cls-11" d="M314.14,48l4.51,18a1.85,1.85,0,0,0,.82.91l.77.43a.76.76,0,0,0,.18.09,1.14,1.14,0,0,0,.26.09,1.79,1.79,0,0,0,.49.08.41.41,0,0,0,.11,0h.07a.51.51,0,0,1-.3-.06.49.49,0,0,1-.26-.33l-4.52-18a.24.24,0,0,1,.22-.33l-.35-.2-1.94-1.09A.55.55,0,0,0,314.14,48Z" transform="translate(-9.68 -39.76)"/><path class="cls-11" d="M316.14,48.71l15.58,6.85c1.11.49,2.2.42,2.63-.16L336,53.17l9.19-12.31-8.7,12.5,13.41,6a.52.52,0,0,1-.07.42L336.49,53.4l-1.91,2.73c-.43.63-1.62.68-2.79.11l-2.09-1L321.05,67.6a.49.49,0,0,1-.26-.33l-.08-.3,8.92-11.77Z" transform="translate(-9.68 -39.76)"/></g><path class="cls-18" d="M343.45,63.39c.1-1.78-.33-3.53.06-5.3.09-.43.11-1.05-.32-1.16a.78.78,0,0,0-.37,0,3.5,3.5,0,0,0-2.06,2.4c-.32.92-.51,2.73-1.81,3.66l3,8C341.8,69,343.3,66,343.45,63.39Z" transform="translate(-9.68 -39.76)"/><path class="cls-6" d="M382.22,268.14a.62.62,0,0,1,.46.45c.29,1,.28,2.07.47,3.06a15.93,15.93,0,0,1,.39,5c-.26,1.25-1.94,2.46-5.1,3.36a21.59,21.59,0,0,0-6.86,3.59,16,16,0,0,1-8.73,3.26c-3.23.1-6.59-.76-7.37-3.09-.33-1-.58-2.65,4-4.46a26,26,0,0,0,4.5-2.12c2.14-1.26,5.36-2.93,7.14-4.59a9.1,9.1,0,0,0,2.63-6.14,3.91,3.91,0,0,1,3.67.65,4,4,0,0,1,1.43,3.45c.22.12.49-.09.57-.32a4.65,4.65,0,0,0,.08-.75,1.58,1.58,0,0,1,1.06-1.14A3,3,0,0,1,382.22,268.14Z" transform="translate(-9.68 -39.76)"/><path class="cls-6" d="M426.39,268.24a6.75,6.75,0,0,0-.4,2.22,14.57,14.57,0,0,0-.26,1.89c0,.56-.13,1.23-.65,1.43a1.14,1.14,0,0,1-1.18-.39,11.45,11.45,0,0,1-.74-1.08A3.23,3.23,0,0,0,420.8,271c-.93,0-1,0-1.62.72.08.18.47,1.1.54,1.28a20.92,20.92,0,0,1,.78,13.28,10.15,10.15,0,0,1-2.38,3.29,15.63,15.63,0,0,1-1.43,1.27c-.45.35-.89.76-.95,1.15a2.53,2.53,0,0,0,.28,1.57,2.88,2.88,0,0,0,1.75,1.27,11.26,11.26,0,0,0,8.33-.27,7.44,7.44,0,0,0,2.82-2.38c1.55-2.7,1.37-5.27,1.4-7.59a51.07,51.07,0,0,1,1.3-10.34C432.12,271.16,427.36,267.78,426.39,268.24Z" transform="translate(-9.68 -39.76)"/><path class="cls-18" d="M371.65,271c1.9-2,2.27-4,2-7.84s-2.16-37.52-2.94-45.83c-1.3-14-2-53.23-.8-62.92l37.24,2.93c2.71,6.76,4.69,15.09,4.27,28.15-.32,10-.08,37-.08,37a33.92,33.92,0,0,1,7.79,11.81c2.87,6.93,6.17,30.88,6.17,30.88h0a23.23,23.23,0,0,0,1.09,3,5.9,5.9,0,0,1,1.34,3.5,58.57,58.57,0,0,1-1.31,12.31,5.71,5.71,0,0,1-3.85,4.27,3.31,3.31,0,0,1-1.46.25,1.11,1.11,0,0,1-.7-.27c-.36-.35,0-1.19,0-1.61a15.62,15.62,0,0,0,.19-2.05c0-1.34,0-3-.09-4.32a44,44,0,0,0-1.45-8.93s-.29-.68-.72-1.72h0s-16.17-32.6-20.76-40.54c-3.65-6.24-6.08-30.44-8.66-43.67l-4.37,31.62A61.87,61.87,0,0,1,387,227.17c.68,5.86-3.47,28.86-4.71,37a16.73,16.73,0,0,0-.05,4.58h0c-.44,3.55-3.1,4.64-5.85,6.64-1.36,1-7.37,4.65-11,5.39-2.95.6-5.21-1.17-3.4-2.31C365.42,276.17,369.75,273.08,371.65,271Z" transform="translate(-9.68 -39.76)"/><path class="cls-6" d="M390.46,195.51c-.37-3.55-1.4-8.42-1.4-8.42l-1.2,8.23-1.8,21.22a61.31,61.31,0,0,1,1.17,6.39,60.14,60.14,0,0,1-.46,15.57c-.78,4.55-2.38,12.7-2.38,12.7-6.76,3.52-11.88-.09-11.88-.09s-.66-9.09-1.92-22.41-1.69-26.64-1.78-37.71c0,0-1.6-27.61,3.06-46.23,5.48,3.86,21.76,4.63,28.33-.55,0,0,2.63,4.35,8.38,14.06,4.51,7.63,3.18,19.88,3.26,30.13.12,15.8,0,33.64,0,33.64a50.94,50.94,0,0,1,5.57,7.48c2.88,4.65,4.36,14.95,4.36,14.95s-2.91,6.19-12.83,6.45c0,0-9.65-17.56-12.08-21.55S390.84,199.07,390.46,195.51Z" transform="translate(-9.68 -39.76)"/><path class="cls-19" d="M389.06,187.09l-3.62-13.94a28.68,28.68,0,0,1-12.35-4.71s1.11,5.1,10.67,6.6l4.12,13.69-.24,8.4Z" transform="translate(-9.68 -39.76)"/><path class="cls-3" d="M368.17,120c3.62-5.6,10.84-10.93,13.19-12.79l13.65.1c2.68.13,6.6.48,6.6.48,2.85,1.52,2.71,5,2.8,8.38a45.39,45.39,0,0,1-.87,11.31l-1.84,7.69-.28,1.19c-.05.2-.09.4-.14.61a12.6,12.6,0,0,0,1.09,8.75c3.13,6,6.82,10.48,7.87,15.49a10.79,10.79,0,0,1-4.72-2.73,30.71,30.71,0,0,1-4.84-5.1s-.16,3.4-3.53,7.84a18.58,18.58,0,0,1-2.95,3.11c-6.05,5.06-24.25,7.26-24.85-8.61,0,0,.69-7.23.8-12.61-.11-4.82-.49-8.72-.53-9.83C365.47,129.59,365.53,124.12,368.17,120Z" transform="translate(-9.68 -39.76)"/><path class="cls-13" d="M376.21,132.7s4.48,4,10,2.4a9.23,9.23,0,0,0,6.59-6.22s.18,6.19-6.74,7.86A8.92,8.92,0,0,1,376.21,132.7Z" transform="translate(-9.68 -39.76)"/><path class="cls-19" d="M392.71,67.19a20.48,20.48,0,0,0-12.61,1C367.68,65,360.92,82.05,372.56,87.9c0,0,2.57,11.9,12.19,13.18l9.5.25c2.33-4.26,9.93-6.25,10.59-17.34C406.07,74.71,399.05,68.51,392.71,67.19Z" transform="translate(-9.68 -39.76)"/><path class="cls-19" d="M404.71,77.61h.4a10,10,0,0,1,10,10v19.13a0,0,0,0,1,0,0h-.4a10,10,0,0,1-10-10V77.61A0,0,0,0,1,404.71,77.61Z" transform="translate(-14.58 -14.33) rotate(-3.53)"/><path class="cls-18" d="M375.73,74.62c-1.92,1.18-4.23,6.12-3.81,16.36.37,8.68,3.22,10.78,4.64,11.37s4.15.16,6.79-.33l.1,5.22s-3.33,2.65-3.05,5,5.6,3.19,9,.79a22.66,22.66,0,0,0,5-4.65l-.25-13.51s1.77,1.92,4.66-.08a5,5,0,0,0,.83-7.5A3.48,3.48,0,0,0,394,89s-3.76-.16-9.26-3.48C378.8,81.9,377.31,78.24,375.73,74.62Z" transform="translate(-9.68 -39.76)"/><path class="cls-19" d="M383.14,88.38a1.1,1.1,0,1,0,1.13-1.1A1.12,1.12,0,0,0,383.14,88.38Z" transform="translate(-9.68 -39.76)"/><path class="cls-20" d="M382,96,378.91,97A1.61,1.61,0,0,0,381,98.1,1.71,1.71,0,0,0,382,96Z" transform="translate(-9.68 -39.76)"/><path class="cls-19" d="M373.54,85.41l2.18-1.57a1.29,1.29,0,0,0-1.84-.34A1.39,1.39,0,0,0,373.54,85.41Z" transform="translate(-9.68 -39.76)"/><path class="cls-19" d="M374.09,88a1.1,1.1,0,1,0,1.13-1.1A1.11,1.11,0,0,0,374.09,88Z" transform="translate(-9.68 -39.76)"/><polygon class="cls-20" points="369.74 47.48 369.69 54.06 366.21 53.05 369.74 47.48"/><path class="cls-20" d="M383.35,102c2.79-.41,8.5-2.17,9.36-4.46a5.9,5.9,0,0,1-2,2.94c-1.69,1.5-7.37,3.26-7.37,3.26Z" transform="translate(-9.68 -39.76)"/><path class="cls-18" d="M433.84,168.43s-1.76-19.77-2.23-23.54c-.57-4.49-1.46-6.23-2.63-7.92,0,0-10.85-17.26-13.37-20.49-3.18-4-4.56-6.36-7.19-7.66-1.46-.72-2.2-.82-6.31-1C398,120,405.3,127.18,405.3,127.18L420,145.65s5.36,21.48,5,23.41-1.8,4.41-2.57,6.8c-.51,1.6-.54,3.3-1.3,4.83-.19.38-.36.94,0,1.14a.68.68,0,0,0,.35,0,3.26,3.26,0,0,0,2.45-1.7c.52-.77.61-1.39,1.12-2.16a19.28,19.28,0,0,1-.61,4.73c-.2,1-.37,2.19-.57,3.08-.39,1.71,2.06,2.4,3.71,2a6.07,6.07,0,0,0,3.85-2.66C435.29,180.15,433.84,168.43,433.84,168.43Z" transform="translate(-9.68 -39.76)"/><path class="cls-7" d="M401.58,107.83a26.08,26.08,0,0,1,6.07.39c2.16.59,3.9,2.55,6.23,5.49s5.37,7.66,5.37,7.66-6.49,6.25-12.83,7.72l-2.3-3a18.1,18.1,0,0,1-3.68-8.4A20,20,0,0,1,401.58,107.83Z" transform="translate(-9.68 -39.76)"/></g></svg>